<svg width="150" height="50" viewBox="0 0 108 34" fill="none" xmlns="http://www.w3.org/2000/svg">
<mask id="mask0" mask-type="alpha" maskUnits="userSpaceOnUse" x="23" y="0" width="32" height="34">
<path d="M23.8984 10.2909V23.7091C23.8984 24.9852 24.5848 26.1743 25.6869 26.8123L37.307 33.5215C38.4188 34.1595 39.7819 34.1595 40.8936 33.5215L52.5137 26.8123C53.6255 26.1743 54.3022 24.9852 54.3022 23.7091V10.2909C54.3022 9.01478 53.6158 7.8257 52.5137 7.18766L40.8936 0.478533C39.7819 -0.159511 38.4188 -0.159511 37.307 0.478533L25.6869 7.18766C24.5848 7.8257 23.8984 9.00512 23.8984 10.2909Z" fill="#000095"/>
</mask>
<g mask="url(#mask0)">
<path d="M67.4964 79.6251C67.4964 63.6063 57.4521 49.3084 42.3807 43.8753C26.1203 38.0169 15.2832 22.5879 15.2832 5.30268V-5.84375C44.1402 -5.84375 67.5254 17.5609 67.5158 46.4178L67.4964 79.6251Z" fill="#2262B7"/>
<path d="M67.4964 60.8214C67.4964 44.8026 57.4521 30.5046 42.3807 25.0716C26.1203 19.2132 15.2832 3.78415 15.2832 -13.501V-24.6475C44.1402 -24.6475 67.5254 -1.24285 67.5158 27.6141L67.4964 60.8214Z" fill="url(#paint0_linear)"/>
</g>
<path d="M44.3926 15.5103C44.1799 15.897 43.9963 16.2643 43.7932 16.622C43.1842 17.6951 42.9425 18.9422 42.1885 19.9379C41.9371 20.2763 41.6664 20.5953 41.2314 20.7113C40.661 20.866 39.9746 20.7983 39.733 19.9573C39.5106 20.4986 39.3366 21.04 39.0853 21.533C38.8629 21.9584 38.5729 22.3548 38.2635 22.7221C37.9542 23.0798 37.3161 23.1282 37.0841 22.8091C36.8908 22.5384 36.7458 22.2098 36.6491 21.8907C36.4847 21.3107 36.3397 20.7113 36.2527 20.1119C36.1947 19.7156 36.2527 19.3096 36.2721 18.9035C36.2817 18.5555 36.3011 18.2075 36.2817 17.8498C36.0787 18.2752 35.8854 18.7005 35.6823 19.1259C35.3053 19.9089 34.996 20.7403 34.3579 21.3687C33.7682 21.9487 32.6661 21.7264 32.3568 20.9723C32.0088 20.1409 31.9604 19.2516 32.0281 18.3815C32.1054 17.4631 32.2601 16.5447 32.4535 15.636C32.5405 15.2106 32.7918 14.8046 32.9852 14.3986C33.0722 14.2149 33.2365 14.1472 33.4299 14.2535C33.4879 14.2825 33.5652 14.3019 33.6329 14.3212C34.2226 14.4759 34.2419 14.7756 34.1742 15.2493C34.1066 15.6746 33.9519 16.0903 33.8359 16.5157C33.5169 17.6854 33.3428 18.8649 33.4105 20.0733C33.4202 20.228 33.4782 20.3826 33.5265 20.6147C33.6909 20.344 33.8262 20.141 33.9229 19.9379C34.3193 19.1065 34.6866 18.2462 35.112 17.4244C35.5663 16.5447 36.0787 15.6843 36.5717 14.8239C36.7554 14.5049 36.9488 14.1955 37.1711 13.9152C37.2871 13.7605 37.4418 13.6735 37.7028 13.7412C38.3409 13.9055 38.4665 13.9442 38.2539 14.7949C38.1185 15.3266 38.0315 15.868 37.9058 16.3997C37.8285 16.7284 37.7028 17.0377 37.6255 17.3664C37.5288 17.7821 37.4611 18.1978 37.3838 18.6135C37.3645 18.7392 37.3258 18.8649 37.3161 19.0002C37.3065 19.1839 37.3065 19.3579 37.3065 19.5416C37.2968 19.7349 37.2678 19.9186 37.2871 20.1119C37.3258 20.5663 37.6158 21.7651 37.7415 21.9584C37.8672 21.7071 38.0025 21.475 38.0992 21.2237C38.3699 20.547 40.1293 16.8347 40.2357 16.6317C40.3227 16.4674 40.3517 16.2837 40.429 16.1097C40.5837 15.7617 40.719 15.404 40.922 15.0946C41.2024 14.6596 41.5021 14.2245 41.8598 13.8669C42.0241 13.7025 42.3625 13.6832 42.6235 13.6638C43.0489 13.6348 43.4839 13.6445 43.9189 13.6542C44.1219 13.6542 44.2669 13.6058 44.3249 13.3932C44.3829 13.1805 44.5473 13.1128 44.7406 13.1225C44.963 13.1321 45.1853 13.1515 45.3883 13.2095C45.7267 13.3062 45.8234 13.5188 45.8137 13.9732C45.7944 14.6499 45.7847 15.317 45.775 15.9937C45.7654 16.6027 45.775 17.2214 45.775 17.8595C46.1424 17.5308 46.5001 17.2118 46.8675 16.9024C47.2445 16.5834 47.6215 16.2547 48.0082 15.955C48.3949 15.6553 48.8106 15.404 49.1973 15.1043C49.3326 15.0076 49.4486 14.8723 49.526 14.7369C50.193 13.5382 51.3821 13.7605 52.1555 14.3019C52.3198 14.4179 52.4068 14.6789 52.4552 14.8916C52.5228 15.2106 52.5422 15.5393 52.5615 15.8583C52.5808 16.2257 52.5712 16.5834 52.5808 16.9507C52.5808 17.2021 52.6098 17.4631 52.6002 17.7145C52.5228 18.7392 52.0685 19.5996 51.4691 20.4116C51.2564 20.7017 51.0437 21.0013 50.6667 21.0884C49.2843 21.388 48.7042 20.9143 48.5592 19.6769C48.4239 18.5362 48.6076 17.4341 48.9943 16.274C48.8589 16.3707 48.7719 16.4287 48.6946 16.4964C47.6602 17.3084 46.7224 18.2075 45.862 19.2032C45.5624 19.5416 45.601 19.9186 45.5624 20.3053C45.4174 21.6297 45.2723 22.9541 45.0983 24.2689C44.9823 25.11 44.8566 25.9413 44.6536 26.7631C44.47 27.4881 44.2186 28.2035 43.9286 28.8995C43.6676 29.5183 43.2035 29.9049 42.4785 29.9243C42.1981 29.9339 41.9081 29.992 41.6278 29.992C41.5311 29.992 41.3957 29.8856 41.3377 29.7889C40.9317 29.1896 40.8737 28.4935 40.9027 27.8071C40.9317 27.2078 41.0091 26.6084 41.1154 26.0187C41.2024 25.574 41.3764 25.1583 41.5117 24.7233C41.6181 24.3849 41.7051 24.0465 41.8308 23.7275C41.9758 23.3698 42.1401 23.0218 42.3141 22.6835C42.8652 21.5911 43.3775 20.4696 44.0059 19.4352C44.3249 18.9035 44.4119 18.3912 44.4023 17.8111C44.3926 17.0281 44.3926 16.303 44.3926 15.5103ZM44.2186 20.9337C44.1509 20.9723 44.1123 20.982 44.0929 21.011C43.9286 21.33 43.7739 21.6587 43.6192 21.9874C43.5129 22.2098 43.4355 22.4418 43.3389 22.6738C43.1552 23.0895 42.9425 23.5052 42.7975 23.9305C42.3818 25.11 42.2175 26.328 42.2465 27.5751C42.2561 27.9908 42.2658 28.4258 42.5365 28.8512C42.6428 28.6869 42.7298 28.5805 42.7878 28.4452C43.2325 27.4591 43.4742 26.415 43.6772 25.3613C43.8512 24.4622 43.9576 23.5535 44.0929 22.6448C44.1316 22.4031 44.1993 22.1711 44.2186 21.9294C44.2379 21.6104 44.2186 21.2914 44.2186 20.9337ZM49.961 20.228C50.106 20.0733 50.2317 19.9669 50.3187 19.8316C50.8504 19.0099 51.3531 18.1688 51.5851 17.2021C51.7784 16.419 51.8655 15.6263 51.4981 14.8723C51.4401 14.7369 51.3628 14.4469 51.1501 14.5532C50.8794 14.6982 50.6377 14.9303 50.425 15.1623C50.3574 15.2299 50.4057 15.4136 50.4057 15.5393C50.4057 15.6166 50.396 15.694 50.3767 15.7713C50.1737 16.6027 49.932 17.4341 49.7773 18.2752C49.6806 18.9035 49.7 19.5512 49.961 20.228ZM40.9607 19.3482C40.9994 19.3676 41.038 19.3772 41.0864 19.3966C42.2078 17.7338 42.9232 15.8003 44.3249 14.3115C44.3539 14.2825 44.3249 14.1955 44.3249 14.0699C44.0446 14.1375 43.7352 14.1182 43.5419 14.2729C43.2132 14.5339 42.8942 14.8433 42.6912 15.2106C42.2755 15.9357 41.9081 16.68 41.5794 17.4534C41.3281 18.0431 41.1734 18.7005 40.9607 19.3482Z" fill="white"/>
<path d="M30.9168 13.1804C30.5881 13.0547 30.2498 13.1417 29.9598 13.3447C29.4571 13.6927 29.109 14.1664 28.8287 14.6982C28.5 15.3265 28.1616 15.9549 27.862 16.593C27.6009 17.1343 27.3883 17.7047 27.1562 18.2557C27.0789 18.1977 27.0499 18.1301 27.0499 18.0624C27.0789 17.434 27.0886 16.8056 27.1369 16.1773C27.1852 15.4812 27.2432 14.7755 27.3496 14.0891C27.5816 12.494 27.8813 10.9086 28.413 9.37146C28.616 8.78175 28.326 8.52073 27.7266 8.5594C27.5333 8.56907 27.3496 8.68508 27.1659 8.74308C26.8566 8.83975 26.7019 9.0621 26.6535 9.37146C26.4215 10.6765 26.1315 11.972 25.9478 13.2867C25.7351 14.8045 25.5708 16.3416 25.6385 17.8884C25.7255 19.7445 25.7448 21.6006 25.8221 23.4568C25.8318 23.7758 25.7545 24.2108 26.2669 24.3462C26.6245 24.4428 27.1659 24.1915 27.1949 23.8338C27.2433 23.2441 27.3109 22.6544 27.3109 22.0647C27.3206 21.0206 27.6493 20.0345 27.9006 19.0388C28.0456 18.4781 28.2196 17.9174 28.413 17.3663C28.5773 16.8926 29.5827 14.7562 30.2015 14.3501C30.2015 14.3501 29.2251 22.7994 30.4238 24.8585C30.6655 24.6845 30.9072 24.5975 30.9748 24.4332C31.0812 24.1625 31.1295 23.8434 31.1102 23.5438C31.0618 22.7897 30.8975 22.0453 30.8975 21.3009C30.9072 20.2955 31.0328 19.2998 31.1005 18.2944C31.1102 18.2074 31.3712 15.9452 31.4002 15.6262C31.4485 15.0752 31.4679 14.5241 31.4775 13.9634C31.4679 13.6057 31.2649 13.3157 30.9168 13.1804Z" fill="white"/>
<path d="M45.5156 9.49833L48.1258 6.95582C48.3675 6.7238 48.7638 6.80114 48.8992 7.10083C48.9959 7.31351 48.9282 7.57453 48.7252 7.70021L45.6703 9.69168C45.6026 9.73034 45.5156 9.71101 45.4866 9.63367C45.4576 9.595 45.477 9.537 45.5156 9.49833Z" fill="#FFFF00"/>
<path d="M39.2305 7.39134L39.5011 3.7951C39.5205 3.47608 39.2498 3.22473 38.9308 3.27306C38.6794 3.31173 38.4957 3.54375 38.5151 3.7951L38.7858 7.39134C38.7954 7.50735 38.9018 7.60402 39.0178 7.59436C39.1338 7.58469 39.2208 7.50735 39.2305 7.39134Z" fill="#FFFF00"/>
<path d="M33.3881 9.23742L31.3676 7.20729C31.1356 6.97527 30.7392 7.04294 30.6039 7.34263C30.5072 7.55531 30.5845 7.81634 30.7876 7.94201L33.2237 9.44045C33.2914 9.47912 33.3784 9.45011 33.4074 9.38243C33.4364 9.3341 33.4267 9.27609 33.3881 9.23742Z" fill="#FFFF00"/>
<path d="M27.7458 8.45361C27.7458 8.45361 26.3247 17.4056 23.2988 19.6774C23.2988 19.6774 25.764 18.6526 26.8081 15.5688C27.8521 12.4849 27.7458 8.45361 27.7458 8.45361Z" fill="white"/>
<path d="M50.1323 14.3608C50.1323 14.3608 51.0701 17.7251 54.3473 16.391C54.3473 16.391 53.5159 17.5124 51.6018 17.2127C49.6876 16.913 48.7789 15.3469 50.1323 14.3608Z" fill="white"/>
<path d="M103.744 22.8482C102.506 22.8482 101.491 22.4809 100.814 21.7752C100.64 21.6012 100.495 21.4078 100.379 21.1951C100.031 20.5958 100.476 19.832 101.172 19.832H101.24C101.559 19.832 101.849 19.9964 102.023 20.2671C102.09 20.3734 102.168 20.4701 102.255 20.5571C102.612 20.9245 103.134 21.1275 103.715 21.1275C104.865 21.1275 105.629 20.4604 105.629 19.455C105.629 17.9566 104.043 17.8212 103.444 17.7729H103.405C102.39 17.6956 100.031 17.2315 100.031 14.5343C100.031 12.4365 101.414 11.1411 103.637 11.1411C104.749 11.1411 105.667 11.4891 106.296 12.1368C106.479 12.3205 106.634 12.5332 106.76 12.7556C107.098 13.3646 106.653 14.109 105.957 14.109C105.629 14.109 105.329 13.9253 105.165 13.645C105.107 13.5386 105.029 13.4419 104.952 13.3549C104.643 13.0166 104.188 12.8329 103.695 12.8329C102.651 12.8329 101.955 13.5096 101.955 14.515C101.955 15.0274 102.197 15.9168 103.802 16.1295C106.131 16.3711 107.572 17.0092 107.572 19.4937C107.562 21.5625 106.102 22.8482 103.744 22.8482Z" fill="white"/>
<path d="M57.4357 21.8527V13.0168H55.8309C55.3379 13.0168 54.9512 12.6204 54.9512 12.137C54.9512 11.644 55.3475 11.2573 55.8309 11.2573H60.9256C61.4186 11.2573 61.8053 11.6537 61.8053 12.137C61.8053 12.6301 61.409 13.0168 60.9256 13.0168H59.3401V21.8527C59.3401 22.3457 58.9438 22.7325 58.4604 22.7325H58.3154C57.832 22.7421 57.4357 22.3457 57.4357 21.8527Z" fill="white"/>
<path d="M73.3984 22.741V11.2466H78.1838C78.6671 11.2466 79.0635 11.6429 79.0635 12.1263C79.0635 12.6097 78.6671 13.006 78.1838 13.006H75.3899V15.9159H77.8647C78.3481 15.9159 78.7445 16.3123 78.7445 16.7956V16.815C78.7445 17.2983 78.3481 17.6947 77.8647 17.6947H75.3899V20.8559H78.3288C78.8121 20.8559 79.2085 21.2523 79.2085 21.7356V21.8806C79.2085 22.364 78.8121 22.7604 78.3288 22.7604H73.3984V22.741Z" fill="white"/>
<path d="M92.7988 22.741V11.2466H97.5842C98.0675 11.2466 98.4639 11.6429 98.4639 12.1263C98.4639 12.6097 98.0675 13.006 97.5842 13.006H94.7903V15.9159H97.2651C97.7485 15.9159 98.1449 16.3123 98.1449 16.7956V16.815C98.1449 17.2983 97.7485 17.6947 97.2651 17.6947H94.7903V20.8559H97.7292C98.2125 20.8559 98.6089 21.2523 98.6089 21.7356V21.8806C98.6089 22.364 98.2125 22.7604 97.7292 22.7604H92.7988V22.741Z" fill="white"/>
<path d="M69.1746 21.718V17.8124H65.269V21.718C65.269 22.2593 64.8243 22.704 64.2829 22.704C63.7416 22.704 63.2969 22.2593 63.2969 21.718V12.2053C63.2969 11.6639 63.7416 11.2192 64.2829 11.2192C64.8243 11.2192 65.269 11.6639 65.269 12.2053V15.9466H69.1746V12.2053C69.1746 11.6639 69.6193 11.2192 70.1607 11.2192C70.702 11.2192 71.1467 11.6639 71.1467 12.2053V21.718C71.1467 22.2593 70.702 22.704 70.1607 22.704C69.6193 22.7137 69.1746 22.269 69.1746 21.718Z" fill="white"/>
<path d="M88.4881 21.736V15.9452L86.2259 20.3825C86.0229 20.7886 85.4429 20.7886 85.2399 20.3825L82.9874 15.9356V21.736C82.9874 22.287 82.5427 22.7414 81.982 22.7414C81.4309 22.7414 80.9766 22.2967 80.9766 21.736V12.2523C80.9766 11.3146 82.156 10.8892 82.7553 11.6143L85.5685 17.3663C85.6362 17.5017 85.8296 17.5017 85.8972 17.3663L88.7104 11.6143C89.3098 10.8892 90.4892 11.3049 90.4892 12.2523V21.736C90.4892 22.287 90.0445 22.7414 89.4838 22.7414C88.9328 22.7414 88.4881 22.2967 88.4881 21.736Z" fill="white"/>
<path d="M19.0158 21.8244V12.9885H17.411C16.9179 12.9885 16.5312 12.5921 16.5312 12.1087C16.5312 11.6157 16.9276 11.229 17.411 11.229H22.5057C22.9987 11.229 23.3854 11.6254 23.3854 12.1087C23.3854 12.6018 22.989 12.9885 22.5057 12.9885H20.9202V21.8244C20.9202 22.3174 20.5239 22.7041 20.0405 22.7041H19.8955C19.4121 22.7138 19.0158 22.3174 19.0158 21.8244Z" fill="white"/>
<path d="M9.55273 22.6362V11.2964H14.2704C14.7441 11.2964 15.1308 11.6831 15.1308 12.1568C15.1308 12.6305 14.7441 13.0172 14.2704 13.0172H11.5055V15.8884H13.9514C14.4251 15.8884 14.8118 16.2751 14.8118 16.7488V16.7681C14.8118 17.2418 14.4251 17.6285 13.9514 17.6285H11.5055V20.751H14.4057C14.8794 20.751 15.2661 21.1377 15.2661 21.6114V21.7564C15.2661 22.2301 14.8794 22.6168 14.4057 22.6168H9.55273V22.6362Z" fill="white"/>
<path d="M3.96361 22.81C1.77879 22.81 0 21.0312 0 18.8464V15.1438C0 12.959 1.77879 11.1802 3.96361 11.1802C4.93034 11.1802 5.86808 11.5379 6.59313 12.1759C6.70913 12.2726 6.81547 12.3886 6.91214 12.4949C7.26983 12.8913 7.23117 13.5003 6.83481 13.858C6.43845 14.2157 5.8294 14.177 5.47171 13.7807C5.42337 13.7227 5.36537 13.6647 5.30737 13.6163C4.94001 13.2876 4.45664 13.104 3.95394 13.104C2.83253 13.104 1.9238 14.0127 1.9238 15.1341V18.8367C1.9238 19.9581 2.83253 20.8668 3.95394 20.8668C5.07535 20.8668 5.98408 19.9581 5.98408 18.8367V18.798H4.65966C4.12796 18.798 3.69293 18.363 3.69293 17.8313C3.69293 17.2996 4.12796 16.8646 4.65966 16.8646H6.95081C7.48252 16.8646 7.91755 17.2996 7.91755 17.8313V18.8367C7.91755 21.0312 6.14842 22.81 3.96361 22.81Z" fill="white"/>
<defs>
<linearGradient id="paint0_linear" x1="15.2781" y1="18.0891" x2="101.346" y2="18.0891" gradientUnits="userSpaceOnUse">
<stop stop-color="#00D1C5"/>
<stop offset="1" stop-color="#2262B7"/>
</linearGradient>
</defs>
</svg>
