
<svg width="299" height="94" viewBox="0 0 299 94" fill="none" xmlns="http://www.w3.org/2000/svg">
<path d="M66.7595 28.454V65.546C66.7595 69.0777 68.6559 72.3485 71.7179 74.1231L103.834 92.6691C106.896 94.4436 110.671 94.4436 113.733 92.6691L145.85 74.1231C148.912 72.3485 150.808 69.0777 150.808 65.546V28.454C150.808 24.9223 148.912 21.6515 145.85 19.8769L113.733 1.33093C110.671 -0.443642 106.896 -0.443642 103.834 1.33093L71.7005 19.8769C68.6385 21.6341 66.7595 24.9049 66.7595 28.454Z" fill="url(#paint0_linear)"/>
<path d="M126.505 26.2627L133.725 19.2514C134.386 18.6077 135.482 18.8165 135.865 19.6516C136.143 20.2431 135.934 20.9564 135.378 21.3218L126.94 26.8194C126.766 26.9412 126.522 26.8716 126.435 26.6629C126.366 26.5237 126.383 26.3671 126.505 26.2627Z" fill="#FCE100"/>
<path d="M109.124 20.4513L109.872 10.5172C109.942 9.64729 109.176 8.93398 108.307 9.07317C107.611 9.17755 107.106 9.82127 107.158 10.5172L107.924 20.4513C107.941 20.7818 108.237 21.0254 108.567 21.008C108.863 20.9906 109.107 20.7471 109.124 20.4513Z" fill="#FCE100"/>
<path d="M93.014 25.5311L87.4293 19.9116C86.7856 19.2679 85.6896 19.4593 85.3242 20.2944C85.0458 20.8859 85.272 21.5992 85.8287 21.9472L92.5791 26.1052C92.7704 26.227 92.9966 26.14 93.101 25.9487C93.1358 25.8095 93.1184 25.6529 93.014 25.5311Z" fill="#FCE100"/>
<path d="M86.1588 36.4575C85.2367 36.127 84.3146 36.3531 83.4969 36.9273C82.1225 37.9015 81.1308 39.189 80.3653 40.6678C79.4606 42.4076 78.5211 44.1473 77.6861 45.9219C76.9727 47.4355 76.3812 48.9839 75.7375 50.5323C75.5287 50.3583 75.4417 50.1843 75.4417 49.993C75.5113 48.2532 75.5461 46.5134 75.6853 44.7736C75.8245 42.8425 75.9811 40.9113 76.2594 38.9976C76.8858 34.5786 77.7209 30.2117 79.1997 25.9667C79.7564 24.3835 78.9909 23.6354 77.3903 23.7224C77.3903 23.5136 77.3903 23.3918 77.3903 23.3918C77.3903 23.3918 77.3729 23.5136 77.3381 23.7224H77.3207C76.7988 23.7572 76.2768 24.0703 75.7549 24.2269C74.9024 24.5053 74.4849 25.1142 74.3283 25.9667C73.6672 29.568 72.8843 33.1693 72.3797 36.7881C72.0144 39.3977 71.7012 42.0074 71.562 44.6519C69.8223 48.8099 67.665 52.4808 65.0901 54.3946C65.0901 54.3946 68.5 52.968 71.5099 49.1231C71.5099 49.2449 71.5099 49.3666 71.5273 49.5058C71.7534 54.6382 71.8056 59.7705 72.0318 64.9028C72.0666 65.7901 71.8404 66.9732 73.2496 67.3559C74.2587 67.6169 75.7375 66.9384 75.8245 65.9293C75.9637 64.3113 76.1377 62.6759 76.1551 61.0579C76.1899 58.1699 77.0771 55.4559 77.773 52.6896C78.1732 51.1238 78.6603 49.5928 79.1823 48.0792C79.6346 46.757 82.4182 40.8765 84.1232 39.7457C84.1232 39.7457 81.4266 63.1109 84.7495 68.7999C85.4107 68.3128 86.0892 68.0692 86.2631 67.6169C86.5589 66.8688 86.6807 65.9815 86.6285 65.1638C86.4893 63.0935 86.037 61.0231 86.0544 58.9528C86.0718 56.1866 86.4197 53.4029 86.6285 50.6367C86.6459 50.3931 87.3592 44.1473 87.4462 43.26C87.5854 41.729 87.6376 40.198 87.6724 38.667C87.6898 37.6232 87.133 36.8055 86.1588 36.4575Z" fill="white"/>
<path d="M150.932 45.3308C149.018 46.1137 147.383 46.305 146.008 46.1311C146.008 45.3308 146.008 44.5479 145.956 43.7476C145.904 42.8429 145.869 41.9382 145.66 41.0683C145.521 40.4768 145.277 39.7461 144.825 39.4329C142.685 37.9541 139.38 37.3278 137.553 40.6508C137.344 41.0509 136.996 41.4163 136.631 41.6773C135.552 42.4775 134.404 43.2083 133.343 44.0086C132.264 44.8436 131.22 45.7483 130.176 46.6356C129.167 47.5055 128.175 48.3754 127.149 49.2801C127.149 47.5055 127.132 45.8179 127.149 44.1303C127.166 42.2688 127.201 40.4072 127.253 38.5457C127.288 37.293 127.027 36.7015 126.088 36.4405C125.514 36.284 124.887 36.2144 124.296 36.197C123.774 36.1622 123.304 36.3535 123.148 36.9451C122.991 37.5366 122.573 37.6758 122.017 37.6758C120.834 37.6584 119.633 37.6236 118.45 37.7106C117.719 37.7628 116.797 37.8324 116.345 38.2847C115.336 39.2938 114.518 40.4942 113.753 41.6947C113.196 42.5645 112.813 43.5562 112.396 44.5131C112.187 44.9828 112.1 45.5048 111.856 45.9571C111.543 46.5138 106.689 56.7959 105.959 58.6574C105.68 59.336 105.315 59.9797 104.967 60.693C104.619 60.1537 103.801 56.8307 103.714 55.5781C103.679 55.0561 103.749 54.5342 103.766 53.9949C103.784 53.4903 103.766 52.9858 103.801 52.4986C103.836 52.1507 103.923 51.7853 103.993 51.4374C104.201 50.2891 104.393 49.1235 104.654 47.9926C104.863 47.0879 105.21 46.2181 105.419 45.3134C105.767 43.8346 106.028 42.3384 106.394 40.877C106.968 38.5283 106.637 38.3891 104.88 37.9541C104.167 37.7802 103.732 38.0237 103.419 38.4413C102.81 39.2416 102.27 40.0941 101.766 40.9639C100.391 43.3474 98.9995 45.7135 97.7295 48.1666C96.5464 50.4457 95.5547 52.7944 94.4413 55.1083C94.1629 55.6998 93.7975 56.2392 93.3452 56.9873C93.206 56.3262 93.0495 55.9086 93.0147 55.4737C92.8059 52.1333 93.3104 48.8625 94.1803 45.6439C94.4935 44.4783 94.9284 43.33 95.1198 42.147C95.3286 40.8248 95.2764 40.0071 93.641 39.5895C93.4496 39.5373 93.2582 39.5025 93.1017 39.4155C92.5449 39.1546 92.11 39.3112 91.8664 39.8331C91.3271 40.9465 90.6486 42.06 90.405 43.243C89.8831 45.7483 89.4481 48.2884 89.2393 50.8285C89.048 53.2467 89.1872 55.6824 90.144 57.9963C91.0139 60.0841 94.0411 60.693 95.6765 59.0924C97.4511 57.3526 98.3036 55.0735 99.3474 52.8988C99.9042 51.7331 100.461 50.5501 101 49.3844C101.07 50.3935 101.018 51.3504 100.983 52.3073C100.948 53.4207 100.774 54.5516 100.931 55.6476C101.174 57.3004 101.574 58.9532 102.044 60.5712C102.305 61.4585 102.688 62.3632 103.227 63.1113C103.871 63.9986 105.628 63.8768 106.481 62.8851C107.333 61.8586 108.151 60.7626 108.76 59.5795C109.473 58.2051 109.96 56.7089 110.569 55.2127C111.23 57.544 113.126 57.7354 114.71 57.3004C115.91 56.9699 116.641 56.0826 117.354 55.1605C119.442 52.3943 120.12 48.9495 121.791 45.9919C122.347 45.0002 122.869 43.9911 123.443 42.9125C123.443 45.0872 123.443 47.1053 123.443 49.1235C123.443 50.7067 123.235 52.1333 122.33 53.6121C120.573 56.5001 119.181 59.5795 117.65 62.6067C117.163 63.5462 116.71 64.5205 116.31 65.4948C115.962 66.3994 115.701 67.3389 115.423 68.261C115.04 69.444 114.553 70.6271 114.327 71.8449C114.014 73.4629 113.805 75.1331 113.735 76.7859C113.648 78.6996 113.805 80.6134 114.936 82.2662C115.11 82.5271 115.475 82.8229 115.754 82.8229C116.536 82.8403 117.319 82.6663 118.12 82.6315C120.103 82.5793 121.408 81.5007 122.121 79.7957C122.921 77.882 123.617 75.8986 124.122 73.8979C124.679 71.6362 125.044 69.3223 125.357 67.0084C125.844 63.3548 126.227 59.7013 126.644 56.0478C126.766 54.9865 126.662 53.9427 127.48 53.0032C129.863 50.2543 132.455 47.7491 135.326 45.5221C135.552 45.3482 135.796 45.1916 136.161 44.9132C135.1 48.1144 134.595 51.159 134.961 54.3254C135.361 57.7528 136.979 59.0576 140.789 58.2225C141.85 57.9963 142.424 57.1612 143.016 56.3435C144.669 54.1166 145.939 51.7331 146.147 48.8973C146.182 48.4972 146.165 48.097 146.147 47.6969C149.436 47.3489 150.932 45.3308 150.932 45.3308ZM123.217 39.5547C119.337 43.6606 117.372 49.0017 114.257 53.6121C114.153 53.5773 114.031 53.5251 113.927 53.4903C114.501 51.7158 114.936 49.9064 115.649 48.2014C116.536 46.0789 117.563 44.0086 118.711 42.0078C119.285 41.0161 120.155 40.1463 121.06 39.4329C121.582 39.0328 122.434 39.0676 123.217 38.8762C123.235 39.2416 123.304 39.4677 123.217 39.5547ZM122.904 60.6234C122.852 61.2845 122.678 61.9456 122.573 62.6067C122.191 65.112 121.895 67.6347 121.425 70.1052C120.868 73.0106 120.207 75.8986 118.972 78.6127C118.816 78.978 118.555 79.2912 118.259 79.7261C117.493 78.5605 117.476 77.36 117.441 76.1944C117.354 72.7496 117.824 69.3745 118.972 66.1211C119.39 64.938 119.981 63.8072 120.486 62.6415C120.764 62.0152 120.99 61.3715 121.269 60.7626C121.686 59.8579 122.138 58.9706 122.573 58.0659C122.608 57.9963 122.73 57.9615 122.921 57.8572C122.921 58.8662 122.974 59.7535 122.904 60.6234ZM142.128 40.2506C142.72 39.9549 142.911 40.7552 143.085 41.1205C143.746 42.5297 143.868 43.9738 143.712 45.4178C142.007 44.5305 140.893 43.0517 140.197 41.8164C140.771 41.2249 141.398 40.616 142.128 40.2506ZM139.797 54.8473C139.554 55.2127 139.223 55.4911 138.806 55.9434C138.075 54.0818 138.023 52.2899 138.318 50.5501C138.597 49.0191 138.979 47.5055 139.362 46.0093C140.354 46.7574 141.694 47.3489 143.294 47.5925C142.65 50.2543 141.276 52.5856 139.797 54.8473Z" fill="white"/>
<path d="M287.45 63.1628C284.04 63.1628 281.239 62.1364 279.36 60.2052C278.89 59.7181 278.49 59.1962 278.16 58.6046C277.185 56.9344 278.421 54.8467 280.352 54.8467H280.543C281.43 54.8467 282.231 55.3165 282.701 56.0646C282.875 56.3603 283.083 56.6213 283.327 56.8649C284.318 57.8739 285.745 58.4307 287.363 58.4307C290.529 58.4307 292.669 56.5691 292.669 53.8203C292.669 49.6796 288.285 49.3142 286.632 49.1751L286.528 49.1577C283.71 48.9489 277.203 47.6615 277.203 40.1978C277.203 34.4044 281.03 30.803 287.189 30.803C290.251 30.803 292.791 31.7599 294.548 33.5519C295.053 34.0738 295.47 34.6479 295.818 35.2743C296.758 36.9618 295.54 39.0148 293.609 39.0148C292.687 39.0148 291.869 38.5102 291.399 37.7273C291.225 37.4316 291.034 37.1706 290.808 36.927C289.938 35.9876 288.703 35.483 287.328 35.483C284.458 35.483 282.527 37.362 282.527 40.1456C282.527 41.5548 283.188 44.0253 287.624 44.5994C294.079 45.2606 298.045 47.0351 298.045 53.9072C298.011 59.6137 293.974 63.1628 287.45 63.1628Z" fill="white"/>
<path d="M159.455 60.4311V36.0047H155.036C153.679 36.0047 152.583 34.9086 152.583 33.5516C152.583 32.1946 153.679 31.0985 155.036 31.0985H169.111C170.468 31.0985 171.564 32.1946 171.564 33.5516C171.564 34.9086 170.468 36.0047 169.111 36.0047H164.744V60.4311C164.744 61.7881 163.648 62.8842 162.291 62.8842H161.891C160.551 62.8668 159.455 61.7881 159.455 60.4311Z" fill="white"/>
<path d="M203.576 62.8666V31.1157H216.798C218.138 31.1157 219.217 32.1944 219.217 33.534C219.217 34.8736 218.138 35.9523 216.798 35.9523H209.074V44.0075H215.911C217.251 44.0075 218.329 45.0861 218.329 46.4257V46.4779C218.329 47.8176 217.251 48.8962 215.911 48.8962H209.074V57.6473H217.198C218.538 57.6473 219.617 58.7259 219.617 60.0656V60.4657C219.617 61.8053 218.538 62.884 217.198 62.884H203.576V62.8666Z" fill="white"/>
<path d="M257.213 62.8666V31.1157H270.435C271.775 31.1157 272.853 32.1944 272.853 33.534C272.853 34.8736 271.775 35.9523 270.435 35.9523H262.71V44.0075H269.548C270.887 44.0075 271.966 45.0861 271.966 46.4257V46.4779C271.966 47.8176 270.887 48.8962 269.548 48.8962H262.71V57.6473H270.835C272.175 57.6473 273.253 58.7259 273.253 60.0656V60.4657C273.253 61.8053 272.175 62.884 270.835 62.884H257.213V62.8666Z" fill="white"/>
<path d="M191.902 60.0491V49.2625H181.115V60.0491C181.115 61.5627 179.898 62.7805 178.384 62.7805C176.87 62.7805 175.653 61.5627 175.653 60.0491V33.7611C175.653 32.2475 176.87 31.0297 178.384 31.0297C179.898 31.0297 181.115 32.2475 181.115 33.7611V44.0954H191.902V33.7611C191.902 32.2475 193.12 31.0297 194.633 31.0297C196.147 31.0297 197.365 32.2475 197.365 33.7611V60.0491C197.365 61.5627 196.147 62.7805 194.633 62.7805C193.12 62.7805 191.902 61.5627 191.902 60.0491Z" fill="white"/>
<path d="M245.278 60.1005V44.0946L239.015 56.36C238.441 57.4735 236.841 57.4735 236.284 56.36L230.055 44.0598V60.1005C230.055 61.6316 228.82 62.8668 227.289 62.8668C225.758 62.8668 224.523 61.6316 224.523 60.1005V33.8822C224.523 31.2725 227.794 30.1068 229.429 32.125L237.223 48.0265C237.397 48.3919 237.937 48.3919 238.128 48.0265L245.922 32.125C247.575 30.1068 250.828 31.2725 250.828 33.8822V60.1005C250.828 61.6316 249.593 62.8668 248.062 62.8668C246.514 62.8668 245.278 61.6316 245.278 60.1005Z" fill="white"/>
<path d="M53.2585 60.344V35.9175H48.8394C47.4824 35.9175 46.3864 34.8215 46.3864 33.4645C46.3864 32.1074 47.4824 31.0114 48.8394 31.0114H62.9142C64.2712 31.0114 65.3673 32.1074 65.3673 33.4645C65.3673 34.8215 64.2712 35.9175 62.9142 35.9175H58.5474V60.344C58.5474 61.701 57.4513 62.7971 56.0943 62.7971H55.6941C54.3545 62.7971 53.2585 61.701 53.2585 60.344Z" fill="white"/>
<path d="M27.0932 62.5887V31.238H40.1415C41.4638 31.238 42.525 32.2993 42.525 33.6215C42.525 34.9437 41.4638 36.005 40.1415 36.005H32.5039V43.9558H39.2542C40.5765 43.9558 41.6377 45.017 41.6377 46.3392V46.3914C41.6377 47.7137 40.5765 48.7749 39.2542 48.7749H32.5039V57.4216H40.5243C41.8465 57.4216 42.9078 58.4829 42.9078 59.8051V60.2052C42.9078 61.5275 41.8465 62.5887 40.5243 62.5887H27.0932Z" fill="white"/>
<path d="M11.6434 63.0573C5.60635 63.0573 0.700195 58.1511 0.700195 52.1141V41.8668C0.700195 35.8298 5.60635 30.9236 11.6434 30.9236C14.3226 30.9236 16.8975 31.8979 18.8982 33.6725C19.2114 33.9509 19.5072 34.2466 19.7855 34.5598C20.7598 35.6558 20.6728 37.3434 19.5767 38.3177C18.4807 39.292 16.7931 39.205 15.8188 38.1089C15.6796 37.9523 15.5231 37.7958 15.3665 37.6566C14.34 36.7519 13.0178 36.2473 11.6434 36.2473C8.54657 36.2473 6.0239 38.77 6.0239 41.8668V52.1141C6.0239 55.2109 8.54657 57.7336 11.6434 57.7336C14.7402 57.7336 17.2628 55.2109 17.2628 52.1141V51.9923H13.5919C12.1305 51.9923 10.9301 50.8093 10.9301 49.3305C10.9301 47.869 12.1131 46.6686 13.5919 46.6686H19.9247C21.3861 46.6686 22.5866 47.8516 22.5866 49.3305V52.1141C22.5866 58.1511 17.6804 63.0573 11.6434 63.0573Z" fill="white"/>
<defs>
<linearGradient id="paint0_linear" x1="108.782" y1="3.12683" x2="108.782" y2="93.6914" gradientUnits="userSpaceOnUse">
<stop stop-color="#A002FC"/>
<stop offset="0.9969" stop-color="#7302FC"/>
</linearGradient>
</defs>
</svg>
