
<svg width="135px" height="30px" viewBox="0 0 135 30" version="1.1" xmlns="http://www.w3.org/2000/svg" xmlns:xlink="http://www.w3.org/1999/xlink">
    <defs>
        <linearGradient x1="62.9579545%" y1="3.94657389%" x2="-14.2477273%" y2="81.2743992%" id="linearGradient-1">
            <stop stop-color="#FFDD00" offset="0%"></stop>
            <stop stop-color="#EF4056" offset="100%"></stop>
        </linearGradient>
        <linearGradient x1="104.348837%" y1="49.8903088%" x2="-109.133721%" y2="49.8903088%" id="linearGradient-2">
            <stop stop-color="#5BC4BF" offset="0%"></stop>
            <stop stop-color="#2A5CAA" offset="100%"></stop>
        </linearGradient>
        <linearGradient x1="-0.285714286%" y1="50.2175182%" x2="164.292857%" y2="50.2175182%" id="linearGradient-3">
            <stop stop-color="#5BC4BF" offset="0%"></stop>
            <stop stop-color="#2A5CAA" offset="100%"></stop>
        </linearGradient>
    </defs>
    <g id="Page-1" stroke="none" stroke-width="1" fill="none" fill-rule="evenodd">
        <g id="Artboard" transform="translate(-438.000000, -12.000000)">
            <g id="themefisher" transform="translate(438.000000, 12.000000)">
                <g id="Group">
                    <path d="M10.625,21.625 C10.625,18.375 8.625,15.5 5.625,14.5 C2.375,13.375 0.125,10.25 0.125,6.75 L0.125,2.375 C5.875,2.375 10.625,7.125 10.625,12.875 L10.625,21.625 Z" id="Path" fill="#0074BC"></path>
                    <g transform="translate(10.250000, 3.750000)" id="Path">
                        <path d="M11,4.125 L17.375,4.125 C17.375,4.125 17.375,4 17.375,4 L10.875,3.125 L11,4.125 Z" fill="#0074BC"></path>
                        <path d="M11,4 C7.375,3.25 3.75,4.5 1.25,7.125 L0.375,8 L0.375,14 L0.375,19.125 C0.375,19.125 0.375,19.125 0.375,19.125 L0.375,25.75 C2.375,25.75 3.625,23.75 2.75,22 L1.875,20.375 C1.25,19.125 1.5,17.5 2.75,16.625 C5.5,14.375 7.5,11.625 8,8.875 C8.625,5 11.375,4 11.375,4 L11,4 Z" fill="url(#linearGradient-1)"></path>
                        <path d="M0.375,15 L0.375,6.375 C0.375,4.25 1.375,2.625 2.875,1.625 C5.125,0.25 8,0.375 10,2.125 C10.625,2.625 11.125,3.375 11.125,4.125 C5.25,4.125 0.375,9 0.375,15 Z" fill="url(#linearGradient-2)"></path>
                    </g>
                    <path d="M10.625,17.75 C10.625,14.5 8.625,11.625 5.625,10.625 C2.375,9.5 0.125,6.375 0.125,2.875 L0.125,0.625 C5.875,0.625 10.625,5.375 10.625,11.125 L10.625,17.75 Z" id="Path" fill="url(#linearGradient-3)"></path>
                    <polygon id="Path" fill="#0074BC" points="10.625 21.875 8.875 29.625 10.625 29.625"></polygon>
                </g>
                <path d="M86,27.9043478 L86,16.2173913 C86,15.6086957 86.6,15 87.5,15 C88.25,15 89,15.4869565 89,16.2173913 L89,27.7826087 C89,28.3913043 88.4,29 87.5,29 C86.75,29 86,28.5130435 86,27.9043478 Z" id="Path" fill="#FFFFFF"></path>
                <path d="M22.2608696,27.9137931 L22.2608696,17.1724138 L20.173913,17.1724138 C19.5217391,17.1724138 19,16.6896552 19,16.0862069 C19,15.4827586 19.5217391,15 20.173913,15 L26.826087,15 C27.4782609,15 28,15.4827586 28,16.0862069 C28,16.6896552 27.4782609,17.1724138 26.826087,17.1724138 L24.7391304,17.1724138 L24.7391304,27.9137931 C24.7391304,28.5172414 24.2173913,29 23.5652174,29 L23.4347826,29 C22.7826087,29 22.2608696,28.5172414 22.2608696,27.9137931 Z" id="Path" fill="#FFFFFF"></path>
                <path d="M42,30 L42,15 L47.6949153,15 C48.2881356,15 48.7627119,15.5172414 48.7627119,16.1637931 C48.7627119,16.8103448 48.2881356,17.3275862 47.6949153,17.3275862 L44.3728814,17.3275862 L44.3728814,21.0775862 L47.3389831,21.0775862 C47.9322034,21.0775862 48.4067797,21.5948276 48.4067797,22.2413793 C48.4067797,22.887931 47.9322034,23.4051724 47.3389831,23.4051724 L44.3728814,23.4051724 L44.3728814,27.5431034 L47.9322034,27.5431034 C48.5254237,27.5431034 49,28.0603448 49,28.7068966 L49,28.8362069 C49,29.4827586 48.5254237,30 47.9322034,30 L42,30 Z" id="Path" fill="#FFFFFF"></path>
                <path d="M67,30 L67,15 L72.6949153,15 C73.2881356,15 73.7627119,15.5172414 73.7627119,16.1637931 C73.7627119,16.8103448 73.2881356,17.3275862 72.6949153,17.3275862 L69.3728814,17.3275862 L69.3728814,21.0775862 L72.3389831,21.0775862 C72.9322034,21.0775862 73.4067797,21.5948276 73.4067797,22.2413793 C73.4067797,22.887931 72.9322034,23.4051724 72.3389831,23.4051724 L69.3728814,23.4051724 L69.3728814,27.5431034 L72.9322034,27.5431034 C73.5254237,27.5431034 74,28.0603448 74,28.7068966 L74,28.8362069 C74,29.4827586 73.5254237,30 72.9322034,30 L67,30 Z" id="Path" fill="#FFFFFF"></path>
                <path d="M77,27.6724138 L77,15 L82.8947368,15 C83.5087719,15 84,15.4827586 84,16.0862069 C84,16.6896552 83.5087719,17.1724138 82.8947368,17.1724138 L79.4561404,17.1724138 L79.4561404,20.7931034 L82.2807018,20.7931034 C82.8947368,20.7931034 83.3859649,21.2758621 83.3859649,21.8793103 C83.3859649,22.4827586 82.8947368,22.9655172 82.2807018,22.9655172 L79.4561404,22.9655172 L79.4561404,27.7931034 C79.4561404,28.5172414 78.9649123,29 78.2280702,29 C77.6140351,28.8793103 77,28.3965517 77,27.6724138 Z" id="Path" fill="#FFFFFF"></path>
                <path d="M95.8684211,30 C94.2894737,30 92.8421053,29.4957983 91.9210526,28.6134454 C91.6578947,28.3613445 91.5263158,28.1092437 91.3947368,27.8571429 C90.8684211,27.1008403 91.5263158,26.092437 92.4473684,26.092437 L92.5789474,26.092437 C92.9736842,26.092437 93.3684211,26.3445378 93.6315789,26.5966387 C93.7631579,26.7226891 93.7631579,26.8487395 93.8947368,26.9747899 C94.4210526,27.4789916 95.0789474,27.7310924 95.8684211,27.7310924 C97.4473684,27.7310924 98.3684211,26.8487395 98.3684211,25.5882353 C98.3684211,23.697479 96.2631579,23.5714286 95.4736842,23.4453782 C94.1578947,23.3193277 91,22.8151261 91,19.2857143 C91,16.6386555 92.8421053,15 95.7368421,15 C97.1842105,15 98.5,15.3781513 99.2894737,16.2605042 C99.5526316,16.512605 99.6842105,16.7647059 99.9473684,17.0168067 C100.342105,17.7731092 99.8157895,18.7815126 98.8947368,18.7815126 C98.5,18.7815126 98.1052632,18.5294118 97.8421053,18.1512605 C97.7105263,18.0252101 97.7105263,17.8991597 97.5789474,17.7731092 C97.1842105,17.394958 96.5263158,17.1428571 95.8684211,17.1428571 C94.4210526,17.1428571 93.5,18.0252101 93.5,19.2857143 C93.5,19.9159664 93.7631579,21.0504202 96,21.302521 C99.1578947,21.5546218 101,22.4369748 101,25.5882353 C101,28.3613445 99.0263158,30 95.8684211,30 Z" id="Path" fill="#FFFFFF"></path>
                <path d="M110.468354,27.7826087 L110.468354,23.1565217 L105.531646,23.1565217 L105.531646,27.7826087 C105.531646,28.5130435 105.025316,29 104.265823,29 C103.506329,29 103,28.5130435 103,27.7826087 L103,16.2173913 C103,15.4869565 103.506329,15 104.265823,15 C105.025316,15 105.531646,15.4869565 105.531646,16.2173913 L105.531646,20.8434783 L110.468354,20.8434783 L110.468354,16.2173913 C110.468354,15.4869565 110.974684,15 111.734177,15 C112.493671,15 113,15.4869565 113,16.2173913 L113,27.7826087 C113,28.5130435 112.493671,29 111.734177,29 C111.101266,29 110.468354,28.5130435 110.468354,27.7826087 Z" id="Path" fill="#FFFFFF"></path>
                <path d="M36.4683544,27.7826087 L36.4683544,23.1565217 L31.5316456,23.1565217 L31.5316456,27.7826087 C31.5316456,28.5130435 31.0253165,29 30.2658228,29 C29.5063291,29 29,28.5130435 29,27.7826087 L29,16.2173913 C29,15.4869565 29.5063291,15 30.2658228,15 C31.0253165,15 31.5316456,15.4869565 31.5316456,16.2173913 L31.5316456,20.8434783 L36.4683544,20.8434783 L36.4683544,16.2173913 C36.4683544,15.4869565 36.9746835,15 37.7341772,15 C38.4936709,15 39,15.4869565 39,16.2173913 L39,27.7826087 C39,28.5130435 38.4936709,29 37.7341772,29 C36.9746835,29 36.4683544,28.5130435 36.4683544,27.7826087 Z" id="Path" fill="#FFFFFF"></path>
                <path d="M116,28.8793103 L116,15 L121.793103,15 C122.396552,15 122.87931,15.4827586 122.87931,16.0862069 C122.87931,16.6896552 122.396552,17.1724138 121.793103,17.1724138 L118.413793,17.1724138 L118.413793,20.6724138 L121.431034,20.6724138 C122.034483,20.6724138 122.517241,21.1551724 122.517241,21.7586207 C122.517241,22.362069 122.034483,22.8448276 121.431034,22.8448276 L118.413793,22.8448276 L118.413793,26.7068966 L121.913793,26.7068966 C122.517241,26.7068966 123,27.1896552 123,27.7931034 L123,27.9137931 C123,28.5172414 122.517241,29 121.913793,29 L116,29 L116,28.8793103 Z" id="Path" fill="#FFFFFF"></path>
                <path d="M132.236842,28.2631579 L130.394737,24.2105263 L127.631579,24.2105263 L127.631579,27.7719298 C127.631579,28.3859649 127.105263,29 126.315789,29 C125.657895,29 125,28.5087719 125,27.7719298 L125,15 L130.131579,15 C133.026316,15 135,16.8421053 135,19.7894737 C135,21.5087719 134.473684,22.6140351 133.289474,23.3508772 L132.763158,23.7192982 L134.605263,27.2807018 C135,28.1403509 134.342105,29 133.421053,29 C132.894737,29 132.368421,28.754386 132.236842,28.2631579 Z M127.5,22.245614 L130,22.245614 C131.447368,22.245614 132.368421,21.1403509 132.368421,19.6666667 C132.368421,18.1929825 131.447368,17.0877193 130,17.0877193 L127.5,17.0877193 L127.5,22.245614 Z" id="Shape" fill="#FFFFFF" fill-rule="nonzero"></path>
                <path d="M61.6,28.7097416 L61.6,21.0972169 L58.6947368,26.9033798 C58.4421053,27.4194832 57.6842105,27.4194832 57.4315789,26.9033798 L54.5263158,21.0972169 L54.5263158,28.7097416 C54.5263158,29.4838966 53.8947368,30 53.2631579,30 C52.5052632,30 52,29.3548708 52,28.7097416 L52,16.3232608 C52,15.0330024 53.5157895,14.516899 54.2736842,15.5491057 L57.8105263,23.0326046 C57.9368421,23.1616304 58.1894737,23.1616304 58.1894737,23.0326046 L61.7263158,15.5491057 C62.4842105,14.6459249 64,15.1620282 64,16.3232608 L64,28.7097416 C64,29.4838966 63.3684211,30 62.7368421,30 C62.1052632,30 61.6,29.4838966 61.6,28.7097416 Z" id="Path" fill="#FFFFFF"></path>
            </g>
        </g>
    </g>
</svg>