<svg width="32" height="32" viewBox="0 0 32 32" fill="none" xmlns="http://www.w3.org/2000/svg">
<circle cx="16" cy="16" r="15.25" stroke="#4740E7" stroke-width="1.5"/>
<path d="M23.9159 11.8592C24.1181 11.8591 24.3173 11.908 24.4964 12.0018C24.6756 12.0956 24.8293 12.2314 24.9445 12.3977L25.0111 12.5077C25.618 13.4942 25.9575 14.6217 25.9962 15.7793C26.0348 16.9368 25.7713 18.0845 25.2316 19.1092C24.6919 20.134 23.8946 21.0005 22.9182 21.6234C21.9418 22.2464 20.8199 22.6042 19.6632 22.6618L19.3314 22.6702L15.2554 22.6685L16.4591 23.8721C16.6712 24.0839 16.8003 24.3649 16.8226 24.6639C16.8449 24.9628 16.7591 25.2599 16.5808 25.5009L16.4591 25.6409C16.2472 25.8524 15.9664 25.9808 15.6678 26.0029C15.3692 26.0249 15.0726 25.939 14.832 25.7609L14.692 25.6409L11.3545 22.3034C11.1427 22.0917 11.014 21.8111 10.9917 21.5125C10.9693 21.2139 11.0549 20.9172 11.2328 20.6764L11.3545 20.5347L14.692 17.1989C14.9154 16.9772 15.2141 16.8479 15.5286 16.8369C15.8431 16.8258 16.1502 16.9337 16.3886 17.1391C16.6271 17.3445 16.7793 17.6322 16.8149 17.9449C16.8505 18.2576 16.7669 18.5722 16.5808 18.8259L16.4591 18.9659L15.2571 20.1679H19.3314C20.3893 20.1681 21.4076 19.766 22.18 19.0432C22.9524 18.3203 23.4209 17.3308 23.4908 16.2753L23.4991 16.0019C23.4991 15.1767 23.259 14.4082 22.8473 13.7614C22.7314 13.5717 22.6682 13.3546 22.6641 13.1324C22.6601 12.9102 22.7153 12.6909 22.8242 12.4971C22.933 12.3034 23.0915 12.1421 23.2834 12.03C23.4753 11.9179 23.6936 11.8589 23.9159 11.8592V11.8592ZM15.5305 6.36289C15.7422 6.15114 16.0229 6.0224 16.3214 6.00007C16.62 5.97773 16.9167 6.0633 17.1576 6.2412L17.2976 6.36289L20.6351 9.6987L20.7568 9.8404C20.9138 10.0528 20.9995 10.3095 21.0016 10.5737C21.0037 10.8378 20.9221 11.0959 20.7684 11.3108L20.6351 11.4675L17.2976 14.8049L17.1576 14.925C16.9453 15.0822 16.6887 15.1682 16.4246 15.1706C16.1604 15.173 15.9023 15.0917 15.6872 14.9383L15.5305 14.8049L15.4088 14.6649C15.2514 14.4523 15.1655 14.1953 15.1634 13.9308C15.1613 13.6663 15.2431 13.4079 15.3971 13.1929L15.5305 13.0362L16.7325 11.8326H12.6631C11.605 11.8324 10.5865 12.2347 9.81404 12.9579C9.04163 13.6811 8.57321 14.671 8.5038 15.7268L8.49546 16.0019C8.49546 16.7037 8.66884 17.3656 8.97558 17.9474L9.15896 18.2541C9.32718 18.5376 9.37664 18.8761 9.29656 19.1958C9.21649 19.5156 9.01336 19.7908 8.73139 19.9616C8.44941 20.1324 8.11141 20.1849 7.79092 20.1077C7.47043 20.0305 7.1934 19.8298 7.0201 19.5494C6.4013 18.5646 6.05085 17.435 6.00356 16.2728C5.95627 15.1107 6.21378 13.9564 6.75053 12.9245C7.28728 11.8926 8.08459 11.0191 9.0633 10.3907C10.042 9.76219 11.1681 9.40066 12.3297 9.34195L12.6631 9.33361L16.7308 9.33194L15.5305 8.13165L15.4088 7.98995C15.2309 7.74911 15.1453 7.45242 15.1677 7.15384C15.19 6.85525 15.3188 6.57459 15.5305 6.36289Z" fill="#2821D9"/>
</svg>
