<svg width="408" height="408" viewBox="0 0 408 408" fill="none" xmlns="http://www.w3.org/2000/svg">
<path d="M203.9 407.8C316.511 407.8 407.8 316.511 407.8 203.9C407.8 91.2891 316.511 0 203.9 0C91.2891 0 0 91.2891 0 203.9C0 316.511 91.2891 407.8 203.9 407.8Z" fill="#FECD01"/>
<path d="M150.4 258.7C150 248.4 157.5 240.6 168.6 239.6C168.6 210.3 168.6 180.9 168.6 151.6C150.9 151.5 133.7 154.6 117.1 160.7C116.1 161.1 115 161.4 114 161.8C101.9 167.1 90.4 173.2 80.1 181.6C60.3 197.8 46.6 217.9 41.8 243.4C41.3 245.8 41.6 248.4 40.3 250.6V267.6C41.7 271.4 41.7 275.5 42.6 279.4C46.3 295.7 53.8001 310.1 64.8001 322.7C66.2001 324.4 66.3001 325.2 64.8001 326.9C57.6001 335 50.5 343.2 43.3 351.3C42.1 352.7 41.5 354.4 40.3 355.8V360.1C41.6 363.9 44.2001 366.4 48.2001 367.4H168.7C168.7 337 168.7 306.6 168.7 276.2C158 275.2 150.7 268.3 150.4 258.7ZM113.9 276.2C103.8 276.2 95.6 267.9 95.7 257.8C95.8 247.9 104 239.7 114 239.7C124.1 239.7 132.3 247.9 132.2 258.1C132.1 268.1 123.9 276.2 113.9 276.2Z" fill="#F84E82"/>
<path d="M168.6 367.5C168.6 337.1 168.6 306.7 168.6 276.3V276.1C178.4 276.6 186.9 268.3 186.9 258.1C186.9 247.7 178.6 239.3 168.6 239.8V239.6C168.6 210.3 168.6 180.9 168.6 151.6C177.2 151.2 185.7 152.3 194.2 153.6C207.8 155.8 220.7 160.2 233.1 166C236.8 168.1 240.6 170 244.1 172.2C275.4 192.3 295.4 219.5 297 257.9C297.2 277.9 291.4 296.2 280 312.6C263.9 335.8 241.8 351.2 215.4 360.7C206.5 363.9 197.2 366.1 187.7 366.9C187.4 366.9 187.1 367.3 186.7 367.5C180.8 367.5 174.7 367.5 168.6 367.5ZM224 239.7C214 239.7 205.8 247.8 205.7 257.7C205.6 267.8 213.8 276.1 223.9 276.2C233.9 276.2 242.1 268.1 242.2 258.2C242.3 248 234.1 239.7 224 239.7Z" fill="#DD3A71"/>
<path d="M297.1 258C295.4 219.6 275.5 192.4 244.2 172.3C240.6 170 236.8 168.1 233.2 166.1C233.2 129.5 233.2 92.7998 233.2 56.1998C263.2 56.0998 290.3 64.8998 314 83.5998C331.6 97.4998 344 115 349.4 137C356.1 164.6 349.8 189.7 332.9 212.2C328.6 218 328.4 217.9 333.1 223.4C338.4 229.6 343.6 235.7 349 241.8C351.9 245.1 352.9 248.6 351 252.7C349.2 256.7 345.9 258.1 341.6 258C326.7 257.9 311.9 258 297.1 258Z" fill="#7A3EB4"/>
<path d="M233.1 56.0999C233.1 92.6999 233.1 129.4 233.1 166C220.7 160.2 207.8 155.8 194.2 153.6C185.7 152.2 177.2 151.1 168.6 151.6C150.9 151.5 133.7 154.6 117.1 160.7C116.1 161.1 115 161.4 114 161.7C113.1 132.2 124.9 108.1 146.2 88.5999C167.9 68.7999 193.9 58.5999 223.1 56.3999C226.4 56.1999 229.7 55.8999 233.1 56.0999Z" fill="#A260E4"/>
</svg>
