<svg width="462" height="408" viewBox="0 0 462 408" fill="none" xmlns="http://www.w3.org/2000/svg">
<path d="M257.5 407.8C370.111 407.8 461.4 316.511 461.4 203.9C461.4 91.2891 370.111 0 257.5 0C144.889 0 53.6 91.2891 53.6 203.9C53.6 316.511 144.889 407.8 257.5 407.8Z" fill="#FECD01"/>
<path d="M108.4 64.8C97.9 76.1 88.6 88.6 80.8 102.1C77.9 93.8 75.1 85.5 72.3 77.2C71.3 74.3 70 73.5 67.1 73.5C51.9 73.7 36.7 73.5 21.6 73.6C11.4 73.8 4.3 69.7 0.8 60C0.7 59.7 0.3 59.5 0 59.3V50.6C0.9 50.2 0.8 49.3 1 48.6C4 40.5 10.6 35.6 19.4 35.6C41.1 35.5 62.7 35.5 84.3 35.6C93.1 35.6 99.8 40.5 102.9 49C104.8 54.2 106.7 59.5 108.4 64.8Z" fill="#A260E4"/>
<path d="M401.6 257.4C397 251.1 390.5 249.5 383.1 249.5C314.2 249.5 245.3 249.5 176.4 249.6C172.9 249.6 171.4 248.5 170.4 245.3C167.7 236.6 164.6 228 161.5 219.1H166.8C233.8 219.1 300.9 219.1 367.9 219.1C380.4 219.1 386.3 213.2 386.3 200.7C386.3 164.7 386.3 128.6 386.3 92.6C386.3 79.3 380.6 73.6 367.3 73.6C283.4 73.6 199.4 73.6 115.5 73.7C112.3 73.7 110.9 72.9 110 69.8C109.5 68.1 109 66.5 108.4 64.8C97.9 76.1 88.6 88.6 80.8 102.1C100.2 158.6 119.7 215.1 139.2 271.6C143.5 284 149 288 162 288C235.6 288 309.3 288 382.9 288C385.1 288 387.4 287.9 389.6 287.5C403.5 285.1 410 268.9 401.6 257.4ZM141.6 159.4C141.4 159.4 141.2 159.4 140.9 159.5C140 157.1 139.2 154.6 138.4 152.2C138.2 151.5 137.2 150.3 139 150.3C140 150.3 141.6 149.7 141.6 151.6C141.7 154.2 141.6 156.8 141.6 159.4ZM140.1 142.4C138.2 142.2 135.6 143.9 134.5 140.6C130.5 128.7 126.3 116.8 122 104.4C128.1 104.4 133.6 104.5 139.2 104.4C141.5 104.3 141.7 105.4 141.7 107.2C141.6 118 141.7 128.8 141.6 139.6C141.6 140.7 142.3 142.6 140.1 142.4ZM263.8 169.3C263.8 174.8 263.7 180.4 263.8 185.9C263.8 187.7 263.4 188.5 261.4 188.4C255.3 188.3 249.3 188.3 243.2 188.4C241.3 188.4 240.7 187.8 240.8 185.9C240.9 174.8 240.9 163.8 240.8 152.7C240.8 150.8 241.3 150.2 243.2 150.2C249.3 150.3 255.3 150.3 261.4 150.2C263.4 150.2 263.8 150.9 263.8 152.7C263.8 158.2 263.8 163.8 263.8 169.3ZM335.1 104.3C341.2 104.4 347.3 104.4 353.3 104.3C355.3 104.3 355.7 105 355.7 106.8C355.6 112.3 355.7 117.9 355.7 123.4C355.7 128.9 355.6 134.5 355.7 140C355.7 141.9 355.2 142.5 353.3 142.5C347.2 142.4 341.2 142.4 335.1 142.5C333.2 142.5 332.7 141.9 332.7 140C332.8 128.9 332.8 117.8 332.7 106.7C332.6 104.8 333.2 104.3 335.1 104.3ZM332.6 152.9C332.6 150.9 333 150.1 335.2 150.2C341.1 150.3 347 150.4 353 150.2C355.5 150.1 355.7 151.1 355.7 153.2C355.6 158.7 355.7 164.2 355.7 169.8C355.7 175.1 355.6 180.3 355.7 185.6C355.7 187.7 355.3 188.6 353 188.5C347.2 188.3 341.4 188.4 335.6 188.5C333.5 188.6 332.6 188.1 332.6 185.7C332.8 174.7 332.7 163.8 332.6 152.9ZM304.5 104.3C310.6 104.4 316.6 104.4 322.7 104.3C324.7 104.3 325.2 105 325.1 106.8C325 112.3 325.1 117.9 325.1 123.4C325.1 128.9 325 134.5 325.1 140C325.1 141.9 324.6 142.5 322.6 142.5C316.5 142.4 310.5 142.4 304.4 142.5C302.4 142.5 302 141.7 302 140C302.1 128.9 302.1 117.9 302 106.8C302.1 104.9 302.5 104.2 304.5 104.3ZM304.5 150.2C310.6 150.3 316.6 150.3 322.7 150.2C324.7 150.2 325.2 150.9 325.1 152.7C325 163.8 325 174.9 325.1 185.9C325.1 187.8 324.6 188.4 322.7 188.4C316.6 188.3 310.6 188.3 304.5 188.4C302.5 188.4 302.1 187.7 302.1 185.9C302.2 180.4 302.1 174.8 302.1 169.3C302.1 163.8 302.2 158.2 302.1 152.7C302.1 150.9 302.5 150.1 304.5 150.2ZM273.9 104.3C280 104.4 286 104.4 292.1 104.3C293.9 104.3 294.6 104.6 294.6 106.7C294.5 117.9 294.5 129.1 294.6 140.3C294.6 142 294.2 142.6 292.4 142.6C286.2 142.5 280 142.5 273.8 142.6C271.7 142.6 271.5 141.7 271.5 140C271.6 134.3 271.5 128.7 271.5 123C271.5 117.6 271.6 112.2 271.5 106.8C271.5 105 271.9 104.2 273.9 104.3ZM271.5 153C271.5 151.2 271.6 150.1 274 150.2C280 150.4 286.1 150.3 292.2 150.2C294.2 150.2 294.6 150.8 294.6 152.7C294.5 158.4 294.6 164 294.6 169.7C294.6 175 294.5 180.2 294.6 185.5C294.6 187.5 294.4 188.6 291.9 188.5C286 188.3 280.1 188.3 274.1 188.5C271.9 188.6 271.5 187.8 271.5 185.8C271.6 174.8 271.6 163.9 271.5 153ZM240.9 106.9C240.9 105.1 241.3 104.3 243.3 104.3C249.4 104.4 255.4 104.4 261.5 104.3C263.4 104.3 264 104.8 263.9 106.7C263.8 112.4 263.9 118 263.9 123.7C263.9 129 263.8 134.3 263.9 139.5C263.9 141.6 263.6 142.6 261.2 142.5C255.3 142.3 249.3 142.4 243.4 142.5C241.6 142.5 240.9 142 240.9 140.1C240.9 129 240.9 117.9 240.9 106.9ZM213 104.3C218.9 104.4 224.9 104.4 230.8 104.3C233 104.2 233.5 105 233.4 107C233.3 112.5 233.4 118.1 233.4 123.6C233.4 129 233.3 134.4 233.4 139.8C233.5 141.9 232.7 142.5 230.7 142.5C224.8 142.4 218.8 142.3 212.9 142.5C210.7 142.6 210.4 141.7 210.4 139.7C210.5 128.8 210.5 117.8 210.4 106.9C210.3 104.9 210.9 104.2 213 104.3ZM212.9 150.2C218.8 150.3 224.8 150.3 230.7 150.2C232.7 150.2 233.5 150.7 233.4 152.9C233.3 158.4 233.4 164 233.4 169.5C233.4 174.9 233.3 180.3 233.4 185.7C233.4 187.7 232.9 188.5 230.8 188.5C224.7 188.4 218.7 188.4 212.6 188.5C210.9 188.5 210.4 188 210.4 186.2C210.5 175 210.5 163.8 210.4 152.6C210.4 150.5 211.1 150.2 212.9 150.2ZM199.8 188.4C194 188.3 188.2 188.2 182.4 188.4C180 188.5 179.6 187.6 179.7 185.5C179.8 180.1 179.7 174.7 179.7 169.3C179.7 163.9 179.8 158.5 179.7 153.1C179.7 151 180 150.1 182.4 150.2C188.3 150.4 194.2 150.4 200.2 150.2C202.4 150.1 202.7 151 202.7 152.9C202.6 163.8 202.6 174.8 202.7 185.7C202.8 188.1 202 188.5 199.8 188.4ZM182.6 104.3C188.4 104.4 194.2 104.5 200 104.3C202.4 104.2 202.8 105.1 202.8 107.2C202.7 112.7 202.8 118.3 202.8 123.8C202.8 129.1 202.7 134.3 202.8 139.6C202.8 141.7 202.5 142.6 200.1 142.6C194.2 142.4 188.3 142.4 182.3 142.6C180.1 142.7 179.7 141.8 179.7 139.9C179.8 129 179.8 118.1 179.7 107.1C179.7 104.7 180.5 104.2 182.6 104.3ZM149 107.2C149 105 149.5 104.2 151.8 104.3C157.7 104.4 163.7 104.4 169.6 104.3C171.6 104.3 172 104.9 172 106.8C171.9 112.5 172 118.1 172 123.8C172 129.1 171.9 134.3 172.1 139.6C172.1 141.7 171.7 142.6 169.3 142.5C163.5 142.3 157.7 142.3 151.9 142.5C149.6 142.5 149 141.8 149 139.6C149.2 128.8 149.1 118 149 107.2ZM153.4 188.4C151.6 188.4 150.6 188 150.1 186C149.6 184.1 149.1 182.2 149.1 180.2C149.1 171.4 149.2 162.5 149.1 153.7C149.1 151.1 149.6 150 152.5 150.1C158.2 150.3 163.8 150.2 169.5 150.1C171.5 150.1 172.2 150.6 172.2 152.7C172.1 158.2 172.2 163.8 172.2 169.3C172.2 174.7 172.1 180.1 172.2 185.5C172.3 187.8 171.5 188.4 169.3 188.3C164 188.3 158.7 188.3 153.4 188.4Z" fill="#A260E4"/>
<path d="M348.1 358.6C332 358.6 318.7 345.3 318.6 329.2C318.5 313 332.2 299.5 348.3 299.7C364.6 300 377.7 313.2 377.6 329.3C377.5 345.3 364.1 358.6 348.1 358.6Z" fill="#F23D79"/>
<path d="M202.9 299.7C219.3 300.2 232.3 313.5 232 329.5C231.7 345.9 218 359.1 201.8 358.6C185.7 358.1 172.7 344.7 173 329C173.2 312.5 186.8 299.2 202.9 299.7Z" fill="#F23D79"/>
</svg>
