<svg width="349" height="348" viewBox="0 0 349 348" fill="none" xmlns="http://www.w3.org/2000/svg">
<path d="M0.0999929 90.1C0.0999929 67.7 -0.200007 45.4 0.0999929 23C0.199993 10.8 10.9 0.5 23.1 0C24 0 24.8 0 25.7 0C116.1 0 206.6 0 297 0C298 0 299 0.1 300 0.1C299 8 298.1 15.8 295.5 23.4C292.7 31.6 289.3 39.6 284 46.6C281.4 41.3 278.8 36 275.9 30.2C273 36.3 269.9 41.6 268 47.2C266.1 52.6 262.8 54.5 257.4 54.9C251.8 55.3 246.3 56.6 240.2 57.5C246 63.6 251.2 69.2 256.5 74.8C249.6 78.3 242.9 82.2 235.6 84.7C222.2 89.4 208.4 90.4 194.4 89.9C194 87.7 194 85.4 193.2 83.3C191.2 77.9 192.9 74.1 197.2 70.4C201.6 66.6 205.5 62 210 57.3C203.7 56.4 198.2 55.6 192.7 54.8C187.5 54.6 183.9 52.9 182 47.3C180.1 41.5 176.9 36.1 174 29.9C170.5 37.3 167.3 44 164.2 50.7C163.3 52.7 162.4 54.1 159.9 54C158.4 53.9 157 54.4 155.5 54.7C149.9 55.6 144.3 56.5 138.7 57.4C138.9 58 138.9 58.3 139.1 58.4C142.6 62.1 145.9 66.1 149.8 69.4C154.8 73.6 157.1 78.1 154.6 84.5C153.9 86.2 153.9 88.2 153.6 90C133.2 90 112.8 90 92.5 90C92.1 87.8 92.1 85.5 91.3 83.4C89.3 78 91 74.2 95.3 70.5C99.7 66.7 103.6 62.1 108.1 57.4C101.8 56.5 96.3 55.7 90.8 54.9C85.6 54.7 82 53 80.1 47.4C78.1 41.7 75 36.3 72 30C68.5 37.4 65.3 44.1 62.2 50.8C61.3 52.8 60.4 54.2 57.9 54.1C56.4 54 55 54.5 53.5 54.8C47.9 55.7 42.3 56.6 36.1 57.5C40.3 61.8 43.7 66 47.7 69.4C52.7 73.6 55 78.1 52.5 84.5C51.8 86.2 51.8 88.2 51.5 90C34.4 90 17.3 90 0.0999929 90.1Z" fill="#408ECC"/>
<path d="M284 46.6C289.3 39.6 292.6 31.6 295.5 23.4C298.1 15.8 299 8.00001 300 0.100008C308.4 0.100008 316.7 -0.199992 325.1 0.100008C337.3 0.400008 347.8 10.8 347.9 23.1C348.1 51.7 348.1 80.3 347.9 108.9C347.8 121.3 337.2 131.6 324.8 132C321.7 132.1 318.6 132 315.4 132C225.8 132 136.3 132 46.7 132C44 132 41.7 132.6 39.3 134C27.3 140.9 15.2 147.6 3.09999 154.4C2.29999 154.9 1.39999 155.3 0.0999908 155.9C0.0999908 133.7 0.0999908 111.9 0.0999908 90.1C17.3 90.1 34.4 90.1 51.6 90.1C51 93.9 50.5 97.7 49.8 102.1C54.7 99.4 59.1 97.4 63.1 94.6C68.9 90.5 74.5 89.1 80.3 94.3C80.5 94.4 80.8 94.4 81 94.5C85.3 96.9 89.5 99.4 94.3 102.1C93.6 97.5 93 93.7 92.5 90C112.9 90 133.3 90 153.6 90C153 93.8 152.5 97.6 151.8 102C156.7 99.3 161.1 97.3 165.1 94.5C170.9 90.4 176.5 89 182.3 94.2C182.5 94.3 182.8 94.3 183 94.4C187.3 96.8 191.5 99.3 196.3 102C195.6 97.4 195 93.6 194.5 89.9C208.5 90.4 222.4 89.4 235.7 84.7C243 82.1 249.7 78.2 256.6 74.8C258.3 75.6 257.8 76.9 257.5 78.3C256.2 86 255 93.7 253.8 101.5C254.3 101.5 254.6 101.5 254.8 101.4C258.9 99.2 263.3 97.2 267.1 94.5C272.9 90.4 278.5 89 284.3 94.3C284.5 94.4 284.8 94.4 285 94.5C289.3 97 293.5 99.4 298.3 102.2C297.5 97.2 296.9 92.9 296.2 88.6C296.1 88 296 87.4 295.8 86.8C293.4 79.5 294.5 73.6 301.1 68.7C305.1 65.7 308.2 61.6 312.2 57.5C305.8 56.6 300.3 55.8 294.8 55C289.1 54.9 285.2 52.5 284 46.6Z" fill="#2C73AF"/>
<path d="M0.0999929 285C0.0999929 261.7 -0.200007 238.3 0.0999929 215C0.199993 202.7 10.7 192.6 23 192.1C24.4 192 25.7 192.1 27.1 192.1C115 192.1 202.9 192.1 290.8 192.1C292.3 192.1 293.8 192.2 295.3 192.3C279 208.6 262.7 225.1 246.2 241.3C243 244.5 241.5 247.9 241.4 252.1C240 256.5 239.4 261.1 238.5 265.9C244 264.9 249.1 264 254.2 263.2C253.7 264.5 252.7 265.1 251.6 265.8C232.8 278.4 212 285 189.1 285C126.1 285 63.1 285 0.0999929 285ZM126.1 276C155.1 276 184.1 276 213 276C214.1 276 215.3 276.1 216.4 276C219.7 275.7 222 273.2 222 270.1C222 267 219.7 264.5 216.5 264.1C215.5 264 214.5 264.1 213.5 264.1C155.2 264.1 96.8 264.1 38.5 264.1C37.4 264.1 36.2 264 35.1 264.2C32.1 264.8 30.2 266.7 30.1 269.9C30 273.2 31.8 275.3 35 276C36.2 276.3 37.5 276.1 38.7 276.1C67.9 276 97 276 126.1 276ZM159.3 228C183.4 228 207.5 228 231.6 228C232.7 228 233.9 228.1 235 227.9C238 227.2 239.9 225.3 239.9 222.2C239.9 218.9 238.1 216.9 234.9 216.2C233.8 216 232.7 216.1 231.5 216.1C183.5 216.1 135.6 216.1 87.6 216.1C86.6 216.1 85.6 216 84.6 216.2C81.4 216.6 78.9 219.2 79 222.2C79 225.2 81.5 227.8 84.7 228.1C85.8 228.2 86.9 228.1 88.1 228.1C111.9 228 135.6 228 159.3 228ZM90.4 252C95.4 252 100.4 252 105.4 252C118.5 252 131.6 252 144.7 252C149.5 252 152 249.4 151.6 245.2C151.2 241.9 148.8 240 144.6 240C108.8 240 72.9 240 37.1 240C36.5 240 35.8 239.9 35.2 240.1C32 240.8 30.1 242.8 30.1 246.1C30.1 249.4 32.1 251.4 35.3 252C36.4 252.2 37.5 252.1 38.7 252.1C55.9 252 73.2 252 90.4 252ZM189.7 252C198.1 252 206.4 252 214.8 252C219.4 252 222.2 249.6 222.1 245.8C222 242.2 219.3 240 214.9 240C198.3 240 181.7 240 165.1 240C160.7 240 157.9 242.3 157.8 245.8C157.7 249.4 160.6 252 165.1 252C173.2 252 181.4 252 189.7 252ZM45.3 216C42.3 216 39.3 215.9 36.3 216C32.5 216.1 30 218.6 30 222C30 225.4 32.5 227.9 36.4 227.9C42.3 228 48.1 228 54 227.9C57.7 227.8 60.4 225.2 60.4 221.9C60.4 218.6 57.7 216.1 54 216C51.1 215.9 48.2 216 45.3 216Z" fill="#FAA91C"/>
<path d="M0.0999973 285C63.1 285 126.1 285 189.1 285C211.9 285 232.7 278.4 251.7 265.7C252.8 265 253.8 264.4 254.3 263.1C258.9 262.5 262 259.6 265.1 256.5C285.3 236.1 305.6 215.9 326 195.6C327.1 194.6 328.2 193.6 329.3 192.6C340.9 195.9 348 204.7 348 216.2C348.1 259.3 348 302.4 348 345.5C348 346.1 347.9 346.7 347.9 347.3C346.5 347.6 345.7 346.6 344.8 346.1C332.7 339.3 320.6 332.6 308.6 325.7C306.4 324.4 304.2 323.8 301.5 323.8C209.4 323.9 117.3 323.9 25.3 323.8C11.5 323.8 0.599997 314.2 0.0999973 301.3C-0.100003 296 0.0999973 290.5 0.0999973 285ZM218.6 300C246.6 300 274.6 300 302.5 300C306.1 300 309.7 300.1 313.4 300C317.8 299.9 320.5 296.6 319.4 292.5C318.5 288.8 315.6 288 312.2 288C250 288 187.8 288 125.6 288C124.9 288 124.1 287.9 123.4 288.1C120.2 288.8 118.2 290.8 118.2 294.1C118.2 297.3 120.3 299.4 123.5 300C124.6 300.2 125.7 300.1 126.9 300.1C157.4 300 188 300 218.6 300ZM69.2 288C58.7 288 48.2 288 37.7 288C32.6 288 29.9 290.2 30 294.1C30.1 297.9 32.7 300 37.5 300C58.5 300 79.5 300 100.5 300C105.3 300 107.9 297.9 108 294.1C108.1 290.3 105.4 288 100.7 288C90.2 288 79.7 288 69.2 288Z" fill="#CB882B"/>
<path d="M329.3 192.6C328.2 193.6 327 194.5 326 195.6C305.7 215.9 285.4 236.1 265.1 256.5C262 259.6 258.9 262.6 254.3 263.1C249.2 264 244.1 264.9 238.6 265.8C239.5 261 240.1 256.4 241.5 252C248.7 251.4 254.8 249.2 260.2 243.6C281.1 222 302.6 200.9 323.9 179.6C324.9 178.6 326 177.8 327 176.9C327.2 176.9 327.5 176.9 327.7 176.9C329.9 179.9 333.3 181.9 335.2 185.2C334.3 188.6 330.8 189.8 329.3 192.6Z" fill="#ACACAA"/>
<path d="M327 177C326 177.9 324.9 178.7 323.9 179.7C302.6 201 281.1 222.1 260.2 243.7C254.8 249.3 248.7 251.4 241.5 252.1C241.6 247.8 243.1 244.4 246.3 241.3C262.8 225.1 279 208.7 295.4 192.3C303.1 184.2 310.6 175.9 319.3 168.8C321.8 171.5 324.9 173.8 327 177Z" fill="#D6D7D4"/>
<path d="M335.3 185.3C333.4 182 330 180 327.8 177C328.5 174 331.2 172.6 333.1 170.6C336.7 166.9 340.5 163.5 342 158.3C347.5 161.6 349.8 167.8 347 173.3C344.3 178.3 340.1 182.2 335.3 185.3Z" fill="#434E63"/>
<path d="M342 158.3C340.5 163.5 336.7 167 333.1 170.6C331.2 172.6 328.5 174 327.8 177C327.6 177 327.3 177 327.1 177C325 173.8 321.9 171.5 319.3 168.7C322.1 164.9 325.5 161.5 329.2 158.7C333.1 155.8 337.6 155.6 342 158.3Z" fill="#52617A"/>
<path d="M285 94.5C284.8 94.4 284.5 94.5 284.3 94.3C278.5 89.1 273 90.4 267.1 94.5C263.3 97.2 258.9 99.1 254.8 101.4C254.6 101.5 254.3 101.4 253.8 101.5C255 93.7 256.2 86 257.5 78.3C257.7 76.9 258.3 75.6 256.6 74.8C251.3 69.2 246 63.6 240.3 57.5C246.3 56.5 251.9 55.3 257.5 54.9C262.9 54.5 266.2 52.6 268.1 47.2C270.1 41.5 273.1 36.2 276 30.2C278.9 36.1 281.5 41.3 284.1 46.6C285.2 52.5 289.1 54.9 294.8 54.9C294.9 56.1 294.3 56.9 293.6 57.9C290.9 61.8 287.2 64.8 283.9 68.2C282.6 69.5 282 70.7 282.6 72.7C283.7 77.2 284.5 81.9 284.9 86.6C285 89.2 287.1 91.9 285 94.5Z" fill="#F7A81F"/>
<path d="M81 94.5C80.8 94.4 80.5 94.5 80.3 94.3C74.5 89 68.9 90.5 63.1 94.6C59.2 97.4 54.7 99.4 49.8 102.1C50.4 97.7 51 93.9 51.6 90.1C51.9 88.3 51.9 86.3 52.6 84.6C55.1 78.2 52.7 73.7 47.8 69.5C43.7 66.1 40.3 61.9 36.2 57.6C42.4 56.6 48 55.7 53.6 54.9C55.1 54.7 56.6 54.2 58 54.2C60.5 54.3 61.4 52.9 62.3 50.9C65.4 44.2 68.6 37.5 72.1 30.1C75 36.3 78.2 41.7 80.1 47.5C82 53.1 85.7 54.8 90.8 55C90.9 56.2 90.3 57 89.6 58C86.9 61.9 83.2 64.9 79.9 68.3C78.6 69.6 78.1 70.8 78.6 72.8C79.7 77.3 80.5 82 80.9 86.7C81 89.2 83.1 91.9 81 94.5Z" fill="#F7A81F"/>
<path d="M183 94.5C182.8 94.4 182.5 94.5 182.3 94.3C176.5 89 170.9 90.5 165.1 94.6C161.2 97.4 156.7 99.4 151.8 102.1C152.4 97.7 153 93.9 153.6 90.1C153.9 88.3 153.9 86.3 154.6 84.6C157.1 78.2 154.8 73.7 149.8 69.5C145.9 66.2 142.6 62.2 139.1 58.5C138.9 58.3 138.9 58.1 138.7 57.5C144.4 56.6 149.9 55.7 155.5 54.8C157 54.6 158.5 54.1 159.9 54.1C162.4 54.2 163.3 52.8 164.2 50.8C167.3 44.1 170.5 37.4 174 30C176.9 36.2 180.1 41.6 182 47.4C183.9 53 187.6 54.7 192.7 54.9C192.8 56.1 192.2 56.9 191.5 57.9C188.8 61.8 185.1 64.8 181.8 68.2C180.5 69.5 180 70.7 180.5 72.7C181.6 77.2 182.4 81.9 182.8 86.6C183 89.2 185.1 91.9 183 94.5Z" fill="#F7A81F"/>
<path d="M81 94.5C83.1 91.9 81 89.2 80.8 86.6C80.5 81.9 79.6 77.3 78.5 72.7C78 70.6 78.5 69.5 79.8 68.2C83.1 64.8 86.8 61.8 89.5 57.9C90.2 56.9 90.8 56.1 90.7 54.9C96.2 55.7 101.7 56.5 108 57.4C103.5 62.1 99.6 66.7 95.2 70.5C91 74.2 89.2 77.9 91.2 83.4C92 85.5 92 87.8 92.4 90C93 93.8 93.5 97.5 94.2 102.1C89.5 99.4 85.3 97 81 94.5Z" fill="#E49927"/>
<path d="M183 94.5C185.1 91.9 183 89.2 182.8 86.6C182.5 81.9 181.6 77.3 180.5 72.7C180 70.6 180.5 69.5 181.8 68.2C185.1 64.8 188.8 61.8 191.5 57.9C192.2 56.9 192.8 56.1 192.7 54.9C198.2 55.7 203.7 56.5 210 57.4C205.5 62.1 201.6 66.7 197.2 70.5C193 74.2 191.2 77.9 193.2 83.4C194 85.5 194 87.8 194.4 90C195 93.8 195.5 97.5 196.2 102.1C191.5 99.4 187.3 97 183 94.5Z" fill="#E49927"/>
<path d="M285 94.5C287.1 91.9 285 89.2 284.8 86.6C284.5 81.9 283.6 77.3 282.5 72.7C282 70.6 282.5 69.5 283.8 68.2C287.1 64.8 290.8 61.8 293.5 57.9C294.2 56.9 294.8 56.1 294.7 54.9C300.2 55.7 305.7 56.5 312.1 57.4C308.1 61.5 305 65.7 301 68.6C294.4 73.5 293.3 79.5 295.7 86.7C295.9 87.3 296 87.9 296.1 88.5C296.8 92.8 297.4 97.1 298.2 102.1C293.5 99.4 289.3 97 285 94.5Z" fill="#E39927"/>
<path d="M126.1 276C97 276 67.9 276 38.8 276C37.6 276 36.3 276.1 35.1 275.9C31.9 275.2 30.1 273.1 30.2 269.8C30.3 266.7 32.2 264.8 35.2 264.1C36.3 263.9 37.4 264 38.6 264C96.9 264 155.3 264 213.6 264C214.6 264 215.6 263.9 216.6 264C219.9 264.4 222.2 266.9 222.1 270C222.1 273.1 219.8 275.6 216.5 275.9C215.4 276 214.3 275.9 213.1 275.9C184 276 155 276 126.1 276Z" fill="#7B442B"/>
<path d="M159.3 228C135.6 228 111.8 228 88.1 228C87 228 85.8 228.1 84.7 228C81.5 227.7 79 225.1 79 222.1C79 219.1 81.4 216.5 84.6 216.1C85.6 216 86.6 216 87.6 216C135.6 216 183.5 216 231.5 216C232.6 216 233.8 215.9 234.9 216.1C238.1 216.8 240 218.8 239.9 222.1C239.9 225.2 238 227.2 235 227.8C233.9 228 232.8 227.9 231.6 227.9C207.6 228 183.5 228 159.3 228Z" fill="#7B442B"/>
<path d="M90.4 252C73.2 252 55.9 252 38.7 252C37.6 252 36.4 252.1 35.3 251.9C32.1 251.3 30.1 249.4 30.1 246C30.1 242.7 32 240.7 35.2 240C35.8 239.9 36.4 239.9 37.1 239.9C72.9 239.9 108.8 239.9 144.6 239.9C148.8 239.9 151.3 241.8 151.6 245.1C152 249.3 149.5 251.9 144.7 251.9C131.6 251.9 118.5 251.9 105.4 251.9C100.4 252 95.4 252 90.4 252Z" fill="#7B442B"/>
<path d="M189.7 252C181.5 252 173.2 252 165 252C160.5 252 157.5 249.4 157.7 245.8C157.8 242.3 160.7 240 165 240C181.6 240 198.2 240 214.8 240C219.3 240 221.9 242.2 222 245.8C222.1 249.6 219.4 252 214.7 252C206.4 252 198 252 189.7 252Z" fill="#7B452B"/>
<path d="M45.3 216C48.2 216 51.1 215.9 53.9 216C57.7 216.1 60.3 218.6 60.3 221.9C60.3 225.2 57.7 227.8 53.9 227.9C48 228 42.2 228 36.3 227.9C32.5 227.8 30 225.4 29.9 222C29.9 218.6 32.4 216.1 36.2 216C39.3 215.9 42.3 216 45.3 216Z" fill="#7C452B"/>
<path d="M218.6 300C188 300 157.4 300 126.8 300C125.7 300 124.5 300.1 123.4 299.9C120.2 299.3 118.1 297.2 118.1 294C118.1 290.8 120.1 288.7 123.3 288C124 287.8 124.8 287.9 125.5 287.9C187.7 287.9 249.9 287.9 312.1 287.9C315.5 287.9 318.4 288.7 319.3 292.4C320.3 296.5 317.7 299.8 313.3 299.9C309.7 300 306.1 299.9 302.4 299.9C274.6 300 246.6 300 218.6 300Z" fill="#7B442B"/>
<path d="M69.2 288C79.7 288 90.2 288 100.7 288C105.4 288 108.1 290.2 108 294.1C107.9 297.9 105.3 300 100.5 300C79.5 300 58.5 300 37.5 300C32.7 300 30 297.9 30 294.1C29.9 290.1 32.6 288 37.7 288C48.2 288 58.7 288 69.2 288Z" fill="#7B442B"/>
</svg>
