<svg width="456" height="456" viewBox="0 0 456 456" fill="none" xmlns="http://www.w3.org/2000/svg">
<path d="M228 456C353.921 456 456 353.921 456 228C456 102.079 353.921 0 228 0C102.079 0 0 102.079 0 228C0 353.921 102.079 456 228 456Z" fill="#FFD217"/>
<path d="M275.1 244C284.8 264.8 294.4 285.6 304.1 306.4C307 312.6 306 311.4 311.3 309.1C317.4 306.4 323.5 303.5 330.4 300.3C328.5 305.7 326.9 310.2 325.2 314.7C320.4 327.7 315.6 340.8 310.8 353.8C310.3 355.2 310.2 356.8 307.8 355.9C290.2 349.4 272.6 342.9 255 336.5C254.8 336.4 254.7 336.2 254.3 335.7C257.2 334.3 260 332.9 262.9 331.6C266.9 329.7 270.9 327.8 275 326.1C277.2 325.2 277.3 324.1 276.4 322.1C265.6 299.1 255 276.1 244.3 253.1C240.8 245.5 237.3 237.9 233.7 230.3C232.9 228.7 232.9 227.4 233.7 225.7C247.8 195.4 261.9 165 276 134.7C277.7 130.9 277.7 131 273.9 129.2C267.5 126.3 261.1 123.3 254.5 120.2C255.5 118.6 257 118.5 258.2 118.1C274.3 112.1 290.5 106.3 306.7 100.3C309.2 99.4 310.2 99.5 311.1 102.2C317.3 119.6 323.8 137 330.3 154.6C328.5 155 327.4 154 326.2 153.5C320.5 150.9 314.7 148.3 309.1 145.6C307.4 144.8 306.4 144.8 305.5 146.7C295.7 168 285.8 189.2 276 210.4C275.8 210.9 275.8 211.5 275.8 212C275.4 212.4 274.9 212.7 274.6 213.1C272.5 217.7 270.5 222.3 268.3 226.8C267.8 227.9 268.2 228.7 268.6 229.6C270.8 234.4 272.9 239.2 275.1 244Z" fill="#8197BF"/>
<path d="M275.1 244C272.9 239.2 270.8 234.4 268.6 229.6C268.2 228.7 267.7 227.9 268.3 226.8C270.4 222.2 272.5 217.6 274.6 213.1C274.8 212.6 275.4 212.4 275.8 212C297.5 212 319.1 211.9 340.8 212C343.5 212 344.4 211.4 344.3 208.6C344.1 201.2 344.2 193.8 344.2 186.5C345.4 186 345.8 186.9 346.3 187.4C359.2 200.3 372.1 213.2 385 226C386.1 227.1 386.9 227.9 385.3 229.4C372 242.5 358.9 255.8 345.6 268.9C345.4 269.1 345.1 269.3 344.8 269.4C343.8 268.8 344.2 267.8 344.2 267C344.2 260 344.2 253.1 344.2 246.1C344.2 244.6 344.2 243.6 342.2 243.6C319.7 243.9 297.4 243.9 275.1 244Z" fill="#7083A6"/>
<path d="M137.5 216.8C142.6 216.8 145.5 219.3 145.4 224.3C145.3 228.6 147.2 231 150.8 232.5C152.2 233.1 153.7 233.7 154.9 234.6C160.3 238.7 165.7 240.8 172 236.2C174.5 234.4 177 236.2 178.4 238.3C182.1 243.8 185.5 249.5 188.8 255.3C190.4 258.2 188.8 260.9 186.4 262C179.5 265.1 179.4 270.6 180.2 276.7C179.4 282.9 179.7 288.3 186.9 291.1C189.7 292.2 190.1 295.6 188.4 298.4C185.3 303.6 182.3 308.8 179 313.9C177.1 316.9 174 318.3 171 316.3C165.5 312.5 160.9 313.8 156.2 317.5C154.9 318.5 153.3 319.4 151.7 319.9C147.2 321.5 144.9 324.2 145.2 329.3C145.5 333.5 143 336 138.7 336C132.6 336 126.6 336 120.5 336C116.8 336 114 333.9 114.2 330.6C114.7 323.7 110.9 320.9 105.3 318.9C103.9 318.4 102.5 317.5 101.3 316.5C97.5 313.4 93.8 313 89.4 315.7C85.1 318.3 82.3 317.3 79.7 313C76.8 308.4 74 303.7 71.3 299C69 295.1 69.6 292 73.7 290.1C78.7 287.8 80 284.3 79.3 279.2C79 277.4 79 275.4 79.3 273.6C80.2 268.3 78.7 264.7 73.5 262.4C70.2 261 69 257.9 70.9 254.6C74 249.1 77.3 243.6 80.8 238.3C82.5 235.7 85.5 234.4 88.1 236.3C93.9 240.4 98.8 238.7 103.7 234.9C105 233.9 106.6 233.1 108.2 232.6C112.4 231.1 114.3 228.5 114.1 223.8C113.9 218.8 116.2 216.9 121.2 216.7C124 216.6 126.8 216.6 129.6 216.6C132.3 216.8 134.9 216.8 137.5 216.8ZM107.4 276.6C107.5 288.7 117.5 298.8 129.7 298.8C142.1 298.8 152.2 288.7 152.2 276.3C152.1 264.2 142.1 254.1 129.9 254.1C117.5 254.1 107.3 264.2 107.4 276.6Z" fill="#7083A6"/>
<path d="M129.6 216.7C132.2 216.7 134.9 216.8 137.5 216.8C142.6 216.8 145.5 219.3 145.4 224.3C145.3 228.6 147.2 231 150.8 232.5C152.2 233.1 153.7 233.7 154.9 234.6C160.3 238.7 165.7 240.8 172 236.2C174.5 234.4 177 236.2 178.4 238.3C182.1 243.8 185.5 249.5 188.8 255.3C190.4 258.2 188.8 260.9 186.4 262C179.5 265.1 179.4 270.6 180.2 276.7C196.6 276.6 213.1 276.4 229.5 276.6C233.3 276.6 234.1 275.5 234.1 271.9C233.9 248.8 234.1 225.7 234 202.5C234 189.3 224.3 179.7 211.1 179.5C203.2 179.4 195.3 179.4 187.4 179.3C183.7 179.3 180.1 179.3 176.4 179.3C168.5 179.4 160.6 179.4 152.7 179.5C139.5 179.6 129.8 189.2 129.7 202.3C129.7 207.1 129.7 211.9 129.6 216.7Z" fill="#6F9EDD"/>
<path d="M176.4 179.4C180.1 179.4 183.7 179.4 187.4 179.4C200 175.8 208.5 168.2 211.3 155C214 142.3 206.7 128.3 194.3 122.5C182.2 116.8 166.5 120.6 158.7 131C145.1 149.1 153.3 172.7 175.2 178.7C175.7 178.8 176 179.2 176.4 179.4Z" fill="#A260E4"/>
<path d="M129.8 254.1C117.4 254.1 107.3 264.2 107.3 276.6C107.4 288.7 117.4 298.8 129.6 298.8C142 298.8 152.1 288.7 152.1 276.3C152 264.2 141.9 254.1 129.8 254.1Z" fill="#E4ECF1"/>
</svg>
