<svg width="408" height="408" viewBox="0 0 408 408" fill="none" xmlns="http://www.w3.org/2000/svg">
<path d="M203.9 407.8C316.511 407.8 407.8 316.511 407.8 203.9C407.8 91.2891 316.511 0 203.9 0C91.2891 0 0 91.2891 0 203.9C0 316.511 91.2891 407.8 203.9 407.8Z" fill="#FECD01"/>
<path d="M349.1 170.4C344.4 156.8 335.9 146.6 322.9 140.2C314.8 136.2 306.4 133.4 297.3 132.8C295.7 132.7 295.3 132.1 295 130.5C293.7 121.6 291.2 113 287.1 105C276.2 83.5 259.6 68.4 236.6 60.7C226.1 57.2 215.4 55.8 204.4 56C197.3 56.2 190.4 57.4 183.6 59.5C175.5 61.8 167.9 65.2 161 70.1C155.1 73.7 149.9 78.2 145.4 83.5C141 88 137.3 93 134.4 98.6C132.9 100.4 131.9 102.5 131.1 104.6C130.4 106.4 129.4 106.8 127.6 106.6C123.3 106.2 119 106.4 114.8 107.3C106.7 108.1 99.1999 110.6 92.1999 114.6C85.8999 117.8 80.2999 121.8 75.5999 127C70.6999 131.7 66.7999 137 63.8999 143.1C60.0999 149.7 57.8999 156.9 56.8999 164.4C55.4999 172 55.5999 179.5 57.1999 187C57.4999 190.3 58.4 193.4 59.5 196.5C67.9 219.5 83.8 234.4 107.5 240.9C108.8 241.2 109.6 241.6 109.7 243.3C110.7 257.5 121.8 267 136.2 266C141.4 266.4 141.3 266.4 141.5 271.3C141.6 273.6 141 274.8 138.6 274.7C137 274.6 135.3 274.4 133.7 274.5C123.9 275 116.4 279.1 112.1 288.2C110.4 291.3 109.7 294.6 109.7 298.1C109.7 308.1 109.6 318.1 109.7 328C109.8 338.4 116.3 347.3 126.2 350.6C127.1 350.9 128.1 350.8 128.7 351.7H278.4C279.1 350.7 280.3 351 281.2 350.7C285.3 349.3 289.1 347.2 291.8 343.7C296.2 339.2 298.1 333.7 297.9 327.5C297.9 318.5 298 309.4 298 300.4C298 284.5 288.1 274.5 272.2 274.5C265.8 274.5 265.9 274.5 266.2 267.9C266.3 266.5 266.7 266.1 268 266.1C270.7 266.1 273.4 266.4 276 265.9C283.2 265.4 288.9 262.3 293.1 256.4C295.1 254.1 296.1 251.4 297.1 248.6C297.7 246.7 297.4 244.6 298.5 242.9C307.9 242.5 316.5 239.9 324.5 234.9C331.1 231.2 336.5 226.3 340.7 220.1C344.9 214.3 348.3 208.1 349.8 200.9C350.3 199.6 350.7 198.2 350.6 196.8C350.5 195.8 350.5 194.9 351.6 194.6V180.7C350 177.5 350.3 173.7 349.1 170.4ZM273.1 293C277.6 293.1 279.5 295.1 279.6 299.6C279.6 303.7 279.7 307.8 279.7 311.9C279.7 316.8 279.6 321.7 279.6 326.6C279.6 328.6 279.3 330.4 278 332C276.5 333.1 274.7 333.4 272.9 333.4C267.8 333.4 262.8 333.4 257.7 333.5H155.9C148.8 333.5 141.7 333.4 134.6 333.4C130.1 333.4 128.2 331.5 128.1 326.9C128.1 318.3 128 309.6 128 301C128.4 294.2 129.6 293.1 136.6 293.1C142.6 293.1 148.7 293 154.7 293H193.4C200.5 293 207.7 293 214.8 293H261.6C265.5 292.9 269.3 292.9 273.1 293ZM247.8 272.7C248 274.1 247.2 274.5 246.1 274.7C238.6 274.3 231.1 274.4 223.6 274.7C215.5 274.3 207.4 274.4 199.3 274.7C192.2 274.3 185 274.4 177.9 274.7C173.3 274.6 168.7 274.5 164.1 274.5C160 274.5 160 274.5 160 270.3C160 269.4 160.1 268.6 160 267.7C159.8 266.3 160.7 266.1 161.7 266H187.7C195.8 266 203.9 266 212 266C219.5 266 227 266 234.5 266C238 266 241.5 266.3 245 266.1C247.4 266 248 266.8 247.8 269C247.7 270.2 247.7 271.5 247.8 272.7ZM279.3 244.2C277.9 246.8 275.7 247.7 272.9 247.7C268.8 247.6 264.6 247.7 260.5 247.8C246.6 247.8 232.8 247.8 218.9 247.8H172.1C163.2 247.8 154.4 247.8 145.5 247.8C142 247.8 138.4 247.7 134.9 247.7C130.2 247.7 128.2 245.7 128.2 241.1C128.2 238.9 128.1 236.7 128.1 234.5C128.1 227.7 128.2 220.9 128.2 214.1C128.2 212 128.7 210.2 130 208.6C131.6 207.7 133.3 207.3 135.2 207.3C142.1 207.3 149 207.3 155.9 207.2H264C267.1 207.2 270.1 207.3 273.2 207.3C277.6 207.4 279.5 209.3 279.6 213.7C279.6 217.3 279.7 221 279.7 224.6C279.3 231.2 280 237.7 279.3 244.2ZM327.3 207.8C323.3 213.2 318.6 217.7 312.6 220.7C308.7 222.3 304.8 223.7 300.6 224.3C298.1 224.6 298.2 223.8 298.1 222C298 217.4 298.5 212.8 297.6 208.2C295.4 197.3 286.2 189.2 275.1 189C266.2 188.8 257.2 189 248.3 189H140.3C137.7 189 135.1 188.8 132.5 189C126.9 189.4 121.8 191.1 117.7 195.2C117.3 195.5 116.9 195.8 116.6 196.1C110.1 202.5 109 210.5 109.7 219C109.7 219.5 109.6 220 109.6 220.4C109.7 222 109.4 222.5 107.5 221.9C101.5 220 96.4999 216.7 91.6999 212.8C83.2999 206 78.6999 197 75.8999 186.9C75.2999 184.7 75 182.4 74.5 180.2C73.9 171.9 75.0999 163.9 77.8999 156C80.2999 150 84.1999 145.1 88.1999 140.2C92.9999 135.5 98.4999 131.9 104.4 128.9C109.9 127 115.5 125.3 121.5 125.1C123.3 125.1 124.1 125.1 123.6 127.4C121.9 135 121.4 142.8 121.6 150.6C121.7 156.3 125.5 160.4 130.7 160.5C136 160.6 140.1 156.3 140.1 150.5C140.1 144.8 140.4 139.1 141.2 133.5C142.1 126 145 119.1 147.8 112.1C150.5 106.3 154.4 101.4 158.3 96.4C162.8 91.8 167.7 87.5 173.2 84C180.6 79.7 188.6 76.7999 196.9 75.1999C204.6 74.0999 212.4 74.0999 220.1 75.1999C238.9 78.8999 253.9 88.5 265.1 104.1C269.8 110.7 272.9 118.1 275.4 125.8C276.5 131.3 277.2 136.8 277.6 142.3C278 147.6 281.7 150.8 287.1 150.7C291.7 150.7 296.3 151 300.9 151.6C307.2 152.9 313.1 154.9 318.4 158.6C328.1 165.3 332.6 174.9 333.3 186.4C333.4 194.2 331.2 201.2 327.3 207.8Z" fill="#7A3EB4"/>
<path d="M209.7 313.7C209.5 318.7 205.5 322.3 200.1 322.3C198.9 322.3 197.6 322.2 196.4 322.2C188.1 322.2 179.8 322.2 171.6 322.2C163.6 322.2 155.7 322.3 147.7 322.3C142.3 322.3 138.2 318.4 138.1 313.3C138 308.2 141.9 304.1 147.4 303.9C150.3 303.8 153.2 303.9 156 304H180.3C187.1 304 193.9 303.8 200.7 304C206.2 304.1 209.9 308.3 209.7 313.7Z" fill="#7A3EB4"/>
<path d="M231.2 322.3C230.3 322.3 229.5 322.3 228.6 322.3C222.4 322.3 219 320.1 217.6 315.5C216.9 313 217.2 310.7 218.5 308.6C220.7 304.7 224.3 303.8 228.6 303.8C232.9 303.8 236.6 304.6 239 308.6C242.5 314.7 238.3 322.1 231.2 322.3Z" fill="#7A3EB4"/>
<path d="M269.7 314C269.3 318.6 265.4 322.2 260.6 322.3C259.8 322.3 259.1 322.3 257.8 322.3C255.2 322.5 252.3 322.2 249.9 320C247.3 317.6 246.3 314.7 247 311.2C247.8 307.7 249.9 305.4 253.3 304.4C256.3 303.5 259.4 303.6 262.4 304.3C267.2 305.3 270.1 309.5 269.7 314Z" fill="#7A3EB4"/>
<path d="M209.7 227.5C209.7 232.5 205.9 236.6 200.9 236.7C195.7 236.8 190.5 236.7 185.3 236.7H159.9C155.5 236.7 151.1 236.9 146.7 236.7C142.1 236.6 138.3 232.8 138 228.3C137.6 223.8 140.4 219.9 144.9 218.7C146.1 217.9 147.5 218.2 148.8 218.2C155.6 218.2 162.4 218.2 169.2 218.3C179.8 218.3 190.3 218.2 200.9 218.3C205.9 218.4 209.7 222.5 209.7 227.5Z" fill="#7A3EB4"/>
<path d="M269.7 227.5C269.7 232.5 265.7 236.5 260.5 236.7C259.7 236.7 259 236.7 258.2 236.7C251.8 236.7 248.1 234.3 247.1 229.4C245.9 223.9 249.8 218.6 255.4 218.3C257.1 218.2 258.9 218.2 260.6 218.3C265.8 218.5 269.8 222.5 269.7 227.5Z" fill="#7A3EB4"/>
<path d="M238.2 232.3C235.2 238.4 221.3 238.4 217.9 232.3C214.6 226.4 218.2 218.9 225 218.3C226 218.2 227.1 218.3 228.2 218.3C232.7 217.9 236.4 219.2 238.5 223.5C240 226.4 239.6 229.3 238.2 232.3Z" fill="#7A3EB4"/>
</svg>
