<?xml version="1.0" encoding="UTF-8"?>
<svg xmlns="http://www.w3.org/2000/svg" xmlns:xlink="http://www.w3.org/1999/xlink" width="32px" height="32px" viewBox="0 0 32 32" version="1.1">
<g id="surface1">
<path style=" stroke:none;fill-rule:nonzero;fill:rgb(0%,0%,0%);fill-opacity:1;" d="M 14.195312 0.0898438 C 7.503906 0.933594 2.089844 5.664062 0.496094 12.070312 C 0.105469 13.652344 0.0429688 14.1875 0.0546875 16.089844 C 0.0546875 17.714844 0.078125 18.035156 0.300781 19.066406 C 0.605469 20.515625 1.039062 21.820312 1.601562 22.96875 C 3.664062 27.21875 7.539062 30.375 12.070312 31.503906 C 13.652344 31.894531 14.1875 31.957031 16.089844 31.945312 C 17.714844 31.945312 18.035156 31.921875 19.066406 31.699219 C 20.515625 31.394531 21.820312 30.960938 22.96875 30.398438 C 27.21875 28.335938 30.375 24.460938 31.503906 19.929688 C 31.894531 18.347656 31.957031 17.8125 31.945312 15.910156 C 31.945312 14.285156 31.921875 13.964844 31.699219 12.933594 C 30.988281 9.546875 29.464844 6.753906 27.085938 4.472656 C 24.738281 2.222656 21.972656 0.828125 18.621094 0.203125 C 17.777344 0.0546875 15.058594 -0.0195312 14.195312 0.0898438 Z M 20.167969 14.800781 L 24.078125 21.644531 L 16.203125 21.671875 C 11.867188 21.679688 8.3125 21.671875 8.285156 21.652344 C 8.265625 21.625 10.019531 18.507812 12.1875 14.71875 C 14.355469 10.925781 16.152344 7.859375 16.1875 7.894531 C 16.222656 7.929688 18.019531 11.03125 20.167969 14.800781 Z M 20.167969 14.800781 "/>
</g>
</svg>
